<?xml version="1.0" encoding="utf-8"?>
<!-- Generator: Adobe Illustrator 23.0.1, SVG Export Plug-In . SVG Version: 6.00 Build 0)  -->
<svg version="1.1" id="Layer_1" xmlns="http://www.w3.org/2000/svg" xmlns:xlink="http://www.w3.org/1999/xlink" x="0px" y="0px"
	 viewBox="0 0 86.7 261.4" style="enable-background:new 0 0 86.7 261.4;" xml:space="preserve">
<style type="text/css">
	.st0{clip-path:url(#SVGID_2_);}
	.st1{clip-path:url(#SVGID_4_);fill:#49301C;}
	.st2{clip-path:url(#SVGID_6_);}
	.st3{clip-path:url(#SVGID_8_);fill:#49301C;}
	.st4{clip-path:url(#SVGID_10_);}
	.st5{clip-path:url(#SVGID_12_);fill:#000105;}
	.st6{clip-path:url(#SVGID_14_);}
	.st7{clip-path:url(#SVGID_16_);fill:#8F6F4F;}
	.st8{clip-path:url(#SVGID_18_);}
	.st9{clip-path:url(#SVGID_20_);fill:#70A992;}
	.st10{clip-path:url(#SVGID_22_);}
	.st11{clip-path:url(#SVGID_24_);fill:#49301C;}
	.st12{clip-path:url(#SVGID_26_);}
	.st13{clip-path:url(#SVGID_28_);fill:#49301C;}
	.st14{clip-path:url(#SVGID_30_);}
	.st15{clip-path:url(#SVGID_32_);fill:#35498C;}
	.st16{clip-path:url(#SVGID_34_);}
	.st17{clip-path:url(#SVGID_36_);fill:#70A992;}
	.st18{clip-path:url(#SVGID_38_);}
	.st19{clip-path:url(#SVGID_40_);fill:#C85241;}
</style>
<g>
	<defs>
		<path id="SVGID_1_" d="M7.2,51.3c-0.3-1.3-0.5-2.5-0.6-3.8c-0.2-0.7-1.4-6.9-1.6-9c-0.1-0.8,0.2-1.6,1.8-1.8
			c0.6,0,1.1,0.4,1.2,1.2c0.2,2.1,1,4.3,1.3,6.4c0.3,2.2,0.4,4.3,0.9,6.4C10.7,52.6,7.6,53.3,7.2,51.3"/>
	</defs>
	<clipPath id="SVGID_2_">
		<use xlink:href="#SVGID_1_"  style="overflow:visible;"/>
	</clipPath>
	<g class="st0">
		<defs>
			<rect id="SVGID_3_" x="-1269.2" y="-7978.9" width="1440" height="12597"/>
		</defs>
		<clipPath id="SVGID_4_">
			<use xlink:href="#SVGID_3_"  style="overflow:visible;"/>
		</clipPath>
		<rect x="0" y="31.7" class="st1" width="15.3" height="25.8"/>
	</g>
</g>
<g>
	<defs>
		<path id="SVGID_5_" d="M34.1,77.9c0.7-2.1,2.4-3.3,4.5-3.7c1.7-0.4,3.8,0.9,5,2.8c2.4,3.8,2.3,8.4-0.1,11.5
			c-2.1,2.8-4.9,2.6-7.4,0.3C32.4,85.3,33.7,79.2,34.1,77.9"/>
	</defs>
	<clipPath id="SVGID_6_">
		<use xlink:href="#SVGID_5_"  style="overflow:visible;"/>
	</clipPath>
	<g class="st2">
		<defs>
			<rect id="SVGID_7_" x="-1269.2" y="-7978.9" width="1440" height="12597"/>
		</defs>
		<clipPath id="SVGID_8_">
			<use xlink:href="#SVGID_7_"  style="overflow:visible;"/>
		</clipPath>
		<rect x="28.5" y="69.1" class="st3" width="21.8" height="26.4"/>
	</g>
</g>
<g>
	<defs>
		<path id="SVGID_9_" d="M81.5,43.4c-0.7-1.6-4.4-6.6-7.6-10.8c0.7-1.5,1.1-2.8,1.1-3.3c0-2.6-1.6-4.1-4.3-3.7
			c-0.7,0.1-1.4,0.3-2,0.5c-3.2-4-5.1-6.3-6.3-7.5c-0.5-0.5-0.9-0.9-1.1-1.2c0.6-1.6,0.8-3.4,0.2-5.1C60.5,9,59,6.8,56.1,5.1
			c-0.8-0.5-0.5-0.8-0.9-1C49.6,1.4,40.9,3.3,40.8,4c-0.1,0.8,3.5,3.1,5.3,7.7c0.3,0.7,1,1.5,1.2,2.4c1.4,5.8,5.7,7.4,8.9,7.4
			c0.1,0,0.2,0,0.3,0c0.6,1.1,2.1,3.7,4.3,6.7c0.7,1,1.4,2.1,2.1,3.2c-0.9,1.7-1.8,3.9-2.2,5.8c-1.4,7.2-6.3,25.1-6.8,26.1
			c-1.5-1.5-5.1-7.6-16.6-6.9c-6.9,0.4-12,4.5-15.4,10.6c-0.4,0.7-1,2.2-1.5,3c-0.6-0.6-6.1-12.7-7-19.8c-0.3-2.6-1.1-7-1.6-9.5
			c-0.3-1.4-0.5-2.9-1-4.3C10.1,34,7.8,33,5.1,33.6c-2,0.4-3.4,2.2-3.2,4.6c0.5,4,1,8.1,1.9,12c1.6,7.4,3.5,14.7,5.3,22.1
			c0.8,3.2,1.2,6.6,2.2,9.7c2.1,6.5,4.7,12.8,6.7,19.3c2.3,7,4.2,12.2,4.5,19.6c0.3,6.6,0.2,17.2,0.6,23.9c0.3,4.4,2,7.2,2,11.6
			c0,4.4-1.2,10.2-1.8,14.6c0,0.2-2.1,23.1-2.4,25.1c-1.4,13-1.9,23.8-1.9,36.9c0,5.2,1.2,25.8,2.6,27.3c2.1,2.3,6.6,1.2,7.3-1.8
			c0.2-0.9,0.3-1.8,0.3-2.7c0.8-8.4,1.2-15.2,1.9-23.6c0.6-6.8,1-13.9,1-20.7c0.1-9.1,0.9-14.1,1.6-21.2c0.4-3.5,2.4-16.3,5.3-12.1
			c1,4.1,1.7,17.5,1.5,21.7c-0.9,18.2-2.6,26.2-3.5,32.2c-1.1,7.7-2,15.4-3,23c-0.2,1.2,0,2.6,0.5,3.8c0.8,2.2,3.4,2.5,4.8,0.7
			c0.4-0.5,0.8-1.1,1.3-1.8c0.3-0.8,0.6-1.6,1-2.4c0,0,0,0,0,0c0.8-2.2,2.4-8.6,2.6-9.6c3.5-13.9,6.1-27.2,8.4-41.4
			c1.5-9.1,2-11.4,2.5-20.5c0.1-1.3,0.1-24.6,0.4-26.9c1.7-14.7,3.2-35,4.8-49.7c0.8-7.3,1.7-14.7,2.7-22c0.5-3.3,1.6-6.5,1.8-9.8
			c0.4-6.7,2-13.1,3.1-19.6c0.8-4.7,2-9.4,1.6-14.3c0,0,0-0.1,0-0.1c1.6,2,3.1,3.8,4.5,5c2.1,2,3.9,3,5.3,3c0.5,0,1-0.1,1.4-0.4
			C82.4,47.8,82.5,45.9,81.5,43.4z M57.1,17.9c-1.3,0.7-6,1.3-7.5-6c-0.1-0.6,2.1,0,2.3-1c0.1-1,1.8-1,1.7-1.9
			c-0.1-0.8,0-1.8,0.2-1.7c2.3,0.9,3.7,3.5,4.5,6.1C58.8,15.2,57.8,17.3,57.1,17.9z M59.1,20.7c0.2-0.1,0.3-0.3,0.5-0.5l0.6-0.3
			c0.8,0.9,2.4,2.8,5,6c-0.5,0.8-1.1,1.5-1.5,1.9c-0.2-0.3-0.5-0.6-0.7-1C61.3,24.2,59.9,22,59.1,20.7z M34.1,78
			c0.7-2.1,2.4-3.3,4.5-3.7c1.7-0.4,3.8,0.9,5,2.8c2.4,3.8,2.3,8.4-0.1,11.5c-2.1,2.8-4.9,2.6-7.4,0.3C32.4,85.4,33.7,79.3,34.1,78z
			 M7.2,51.3c-0.3-1.3-0.5-2.5-0.6-3.8c-0.2-0.7-1.4-6.9-1.6-9c-0.1-0.8,0.1-1.6,1.8-1.8c0.6,0,1.1,0.4,1.2,1.2
			c0.2,2.1,1,4.3,1.3,6.4c0.3,2.2,0.4,4.3,0.9,6.4C10.7,52.6,7.6,53.3,7.2,51.3z M52.3,177.9c0,13.7-1.8,27.2-4.7,40.6
			c-2.3,10.6-4.4,20.5-7.1,31.1c-0.3,1-1.7,6.9-3,5.6c-0.5-2.7,2-14.9,2.9-21.2c0.9-6.8,1.8-13.5,2.4-20.3
			c0.6-5.9,1.1-11.8,1.2-17.6c0.1-5.7-0.4-11.4-0.7-17.1c0-0.5-0.2-1.1-0.3-1.6c-0.4-1.5-0.9-2.9-2.5-3.3c-2-0.6-3.8-0.1-5,1.5
			c-1.1,1.6-2.1,3.5-2.5,5.5c-1.7,7.8-2.7,15.6-3,23.6c-0.4,10.5-0.7,20.2-1.4,30.8c-0.4,6.9-1.3,22.2-3.4,21.8
			c-1.2-0.4-1.3-2.6-1.5-3.7c-1-6.2-1.4-19.5-1.4-20.8c-0.6-10.5,0.2-21,1.1-31.5c0.8-9.5,1.9-19.1,3-28.6c0.5-4.4,1.1-8.7,1.7-13.3
			c3-0.5,5.7,0.2,8.4,0.4c4.4,0.3,8.8,0.9,13.2-0.5c2.2-0.7,3.5,0.4,3.5,2.9C52.8,167.2,52.3,172.5,52.3,177.9z M62.8,68.7
			c-1.5,9.1-3.2,18.1-4.5,27.2c-0.8,6-1,12.1-1.7,18.2c-1,9-1.5,17.6-2.6,26.6c-0.4,3.1-1.1,12.6-1.6,14.1c-8,2.1-16.4,1.9-23.7,0.3
			c-2.9-6.2-2.5-13.3-2.8-19.7c-0.5-9.9,0-19.9-2.9-29.6c-2.1-7-4.7-14-7-21c-1.1-3.3-2.3-6.6-3.1-10c-1.4-5.5-4.3-18.3-4.3-19.2
			c0.4-0.1,2-0.4,2.4-0.5c0.2,0.7,3.4,10.8,5.6,14.8c2.5,4.7,3.7,10,5.5,15.1c1.6,4.3,4.6,7,8.8,8.7c1,0.4,2.1,0.8,3.2,0.8
			c4-0.2,8-0.3,11.9-0.9c6-0.8,11.4-11.7,11.3-17.5c0-1.1,0.4-5.6-0.5-8.9c-0.2-0.9,1.3-5.7,1.9-7.9c1-3.5,1.9-7.1,2.9-11
			c1.4,0.1,3.2,0.3,4.4,0.4C66.4,49.7,63.8,62.7,62.8,68.7z M66.6,44.1c-1.2,0-2.3-0.2-3.8-0.3c0.2-4.2,0.8-6.1,1.8-8.5
			c0.1,0.1,0.2,0.2,0.3,0.4c0.7,0.7,1.7,1.1,2.8,1.3C67,39.1,66.9,41.6,66.6,44.1z M67.6,32.9c-0.3-0.3-1.8-1.6,0.8-3.5
			c1.1-0.8,2.2-0.2,2.5,0.8c0.2,0.7-0.1,1.2-0.4,1.5C69.1,33.6,67.8,33.1,67.6,32.9z M79.5,46.6c-0.3,0-1.3-0.3-3.5-2.3
			c-1.5-1.4-3.3-3.6-5.2-6.1c0.3-0.6,0.5-1.1,0.6-1.3c0.4-0.6,0.8-1.2,1.2-1.8c3.3,4.3,6.1,8.1,6.5,9.2
			C79.6,45.6,79.6,46.3,79.5,46.6z"/>
	</defs>
	<clipPath id="SVGID_10_">
		<use xlink:href="#SVGID_9_"  style="overflow:visible;"/>
	</clipPath>
	<g class="st4">
		<defs>
			<rect id="SVGID_11_" x="-1269.2" y="-7978.9" width="1440" height="12597"/>
		</defs>
		<clipPath id="SVGID_12_">
			<use xlink:href="#SVGID_11_"  style="overflow:visible;"/>
		</clipPath>
		<rect x="-3.1" y="-2.3" class="st5" width="90.3" height="268.7"/>
	</g>
</g>
<g>
	<defs>
		<path id="SVGID_13_" d="M57.1,17.9c-1.3,0.7-6,1.3-7.5-6c-0.1-0.6,2.1,0,2.3-1c0.1-1,1.8-1,1.7-1.9c-0.1-0.8,0-1.8,0.2-1.7
			c2.3,0.9,3.7,3.5,4.5,6.1C58.8,15.2,57.8,17.3,57.1,17.9"/>
	</defs>
	<clipPath id="SVGID_14_">
		<use xlink:href="#SVGID_13_"  style="overflow:visible;"/>
	</clipPath>
	<g class="st6">
		<defs>
			<rect id="SVGID_15_" x="-1269.2" y="-7978.9" width="1440" height="12597"/>
		</defs>
		<clipPath id="SVGID_16_">
			<use xlink:href="#SVGID_15_"  style="overflow:visible;"/>
		</clipPath>
		<rect x="44.6" y="2.3" class="st7" width="18.8" height="21"/>
	</g>
</g>
<g>
	<defs>
		<path id="SVGID_17_" d="M59.1,20.7c0.2-0.1,0.3-0.3,0.5-0.5l0.6-0.3c0.8,0.9,2.4,2.8,5,6c-0.5,0.8-1.1,1.5-1.5,1.9
			c-0.2-0.3-0.5-0.6-0.7-1C61.3,24.2,59.9,22,59.1,20.7"/>
	</defs>
	<clipPath id="SVGID_18_">
		<use xlink:href="#SVGID_17_"  style="overflow:visible;"/>
	</clipPath>
	<g class="st8">
		<defs>
			<rect id="SVGID_19_" x="-1269.2" y="-7978.9" width="1440" height="12597"/>
		</defs>
		<clipPath id="SVGID_20_">
			<use xlink:href="#SVGID_19_"  style="overflow:visible;"/>
		</clipPath>
		<rect x="54.1" y="14.9" class="st9" width="16.1" height="17.9"/>
	</g>
</g>
<g>
	<defs>
		<path id="SVGID_21_" d="M66.6,44.1c-1.2,0-2.3-0.2-3.8-0.3c0.2-4.2,0.8-6.1,1.8-8.5c0.1,0.1,0.2,0.2,0.3,0.4
			c0.7,0.7,1.7,1.1,2.8,1.3C67,39.1,66.9,41.6,66.6,44.1"/>
	</defs>
	<clipPath id="SVGID_22_">
		<use xlink:href="#SVGID_21_"  style="overflow:visible;"/>
	</clipPath>
	<g class="st10">
		<defs>
			<rect id="SVGID_23_" x="-1269.2" y="-7978.9" width="1440" height="12597"/>
		</defs>
		<clipPath id="SVGID_24_">
			<use xlink:href="#SVGID_23_"  style="overflow:visible;"/>
		</clipPath>
		<rect x="57.8" y="30.3" class="st11" width="14.9" height="18.8"/>
	</g>
</g>
<g>
	<defs>
		<path id="SVGID_25_" d="M67.6,32.9c-0.3-0.3-1.8-1.6,0.8-3.5c1.1-0.8,2.2-0.2,2.5,0.8c0.2,0.7-0.1,1.2-0.4,1.5
			C69.1,33.6,67.8,33.1,67.6,32.9"/>
	</defs>
	<clipPath id="SVGID_26_">
		<use xlink:href="#SVGID_25_"  style="overflow:visible;"/>
	</clipPath>
	<g class="st12">
		<defs>
			<rect id="SVGID_27_" x="-1269.2" y="-7978.9" width="1440" height="12597"/>
		</defs>
		<clipPath id="SVGID_28_">
			<use xlink:href="#SVGID_27_"  style="overflow:visible;"/>
		</clipPath>
		<rect x="61.9" y="24" class="st13" width="14.1" height="14.1"/>
	</g>
</g>
<g>
	<defs>
		<path id="SVGID_29_" d="M79.5,46.6c-0.3,0-1.3-0.3-3.5-2.3c-1.5-1.4-3.3-3.6-5.2-6.1c0.3-0.6,0.5-1.1,0.6-1.3
			c0.4-0.6,0.8-1.2,1.2-1.8c3.3,4.3,6.1,8.1,6.5,9.2C79.6,45.6,79.6,46.3,79.5,46.6"/>
	</defs>
	<clipPath id="SVGID_30_">
		<use xlink:href="#SVGID_29_"  style="overflow:visible;"/>
	</clipPath>
	<g class="st14">
		<defs>
			<rect id="SVGID_31_" x="-1269.2" y="-7978.9" width="1440" height="12597"/>
		</defs>
		<clipPath id="SVGID_32_">
			<use xlink:href="#SVGID_31_"  style="overflow:visible;"/>
		</clipPath>
		<rect x="65.8" y="30.2" class="st15" width="18.7" height="21.4"/>
	</g>
</g>
<g>
	<defs>
		<path id="SVGID_33_" d="M52.3,177.8c0,13.7-1.8,27.2-4.7,40.6c-2.3,10.6-4.4,20.5-7.1,31.1c-0.3,1-1.7,6.9-3,5.6
			c-0.5-2.7,2-14.9,2.9-21.2c0.9-6.8,1.8-13.5,2.4-20.3c0.6-5.9,1.1-11.8,1.2-17.6c0.1-5.7-0.4-11.4-0.7-17.1c0-0.5-0.2-1.1-0.3-1.6
			c-0.4-1.5-0.9-2.9-2.5-3.3c-2-0.6-3.8-0.1-5,1.5c-1.1,1.6-2.1,3.5-2.5,5.5c-1.7,7.8-2.7,15.6-3,23.6c-0.4,10.5-0.7,20.2-1.4,30.8
			c-0.4,6.9-1.3,22.2-3.4,21.8c-1.2-0.4-1.3-2.6-1.5-3.7c-1-6.2-1.4-19.5-1.4-20.8c-0.6-10.5,0.2-21,1.1-31.5
			c0.8-9.5,1.9-19.1,3-28.6c0.5-4.4,1.1-8.7,1.7-13.3c3-0.5,5.7,0.2,8.4,0.4c4.4,0.3,8.8,0.9,13.2-0.5c2.2-0.7,3.5,0.4,3.5,2.9
			C52.8,167.1,52.3,172.5,52.3,177.8"/>
	</defs>
	<clipPath id="SVGID_34_">
		<use xlink:href="#SVGID_33_"  style="overflow:visible;"/>
	</clipPath>
	<g class="st16">
		<defs>
			<rect id="SVGID_35_" x="-1269.2" y="-7978.9" width="1440" height="12597"/>
		</defs>
		<clipPath id="SVGID_36_">
			<use xlink:href="#SVGID_35_"  style="overflow:visible;"/>
		</clipPath>
		<rect x="16.9" y="153.7" class="st17" width="41" height="108.2"/>
	</g>
</g>
<g>
	<defs>
		<path id="SVGID_37_" d="M62.8,68.7c-1.5,9.1-3.2,18.1-4.5,27.2c-0.8,6-1,12.1-1.7,18.2c-1,9-1.5,17.6-2.6,26.6
			c-0.4,3.1-1.1,12.6-1.6,14.1c-8,2.1-16.4,1.9-23.7,0.3c-2.9-6.2-2.5-13.3-2.8-19.7c-0.5-9.9,0-20-2.9-29.6c-2.1-7-4.7-14-7-21
			c-1.1-3.3-2.3-6.6-3.1-10c-1.4-5.5-4.3-18.3-4.3-19.2c0.4-0.1,2-0.4,2.4-0.5c0.2,0.7,3.4,10.8,5.6,14.8c2.5,4.7,3.7,10,5.5,15.1
			c1.6,4.3,4.6,7,8.8,8.7c1,0.4,2.1,0.8,3.2,0.8c4-0.2,8-0.3,11.9-0.9c6-0.8,11.4-11.7,11.3-17.5c0-1.1,0.4-5.6-0.5-8.9
			c-0.2-0.9,1.3-5.7,1.9-7.9c1-3.5,1.9-7.1,2.9-11c1.4,0.1,3.2,0.3,4.4,0.4C66.4,49.7,63.8,62.7,62.8,68.7"/>
	</defs>
	<clipPath id="SVGID_38_">
		<use xlink:href="#SVGID_37_"  style="overflow:visible;"/>
	</clipPath>
	<g class="st18">
		<defs>
			<rect id="SVGID_39_" x="-1269.2" y="-7978.9" width="1440" height="12597"/>
		</defs>
		<clipPath id="SVGID_40_">
			<use xlink:href="#SVGID_39_"  style="overflow:visible;"/>
		</clipPath>
		<rect x="3.8" y="43.4" class="st19" width="67.5" height="117.9"/>
	</g>
</g>
</svg>
