<?xml version="1.0" encoding="utf-8"?>
<!-- Generator: Adobe Illustrator 23.0.1, SVG Export Plug-In . SVG Version: 6.00 Build 0)  -->
<svg version="1.1" id="Layer_1" xmlns="http://www.w3.org/2000/svg" xmlns:xlink="http://www.w3.org/1999/xlink" x="0px" y="0px"
	 viewBox="0 0 130.4 265.2" style="enable-background:new 0 0 130.4 265.2;" xml:space="preserve">
<style type="text/css">
	.st0{clip-path:url(#SVGID_2_);}
	.st1{clip-path:url(#SVGID_4_);fill:#000105;}
	.st2{clip-path:url(#SVGID_6_);}
	.st3{clip-path:url(#SVGID_8_);fill:#8F6F4F;}
	.st4{clip-path:url(#SVGID_10_);}
	.st5{clip-path:url(#SVGID_12_);fill:#70A992;}
	.st6{clip-path:url(#SVGID_14_);}
	.st7{clip-path:url(#SVGID_16_);fill:#70A992;}
	.st8{clip-path:url(#SVGID_18_);}
	.st9{clip-path:url(#SVGID_20_);fill:#35498C;}
	.st10{clip-path:url(#SVGID_22_);}
	.st11{clip-path:url(#SVGID_24_);fill:#8F6F4F;}
	.st12{clip-path:url(#SVGID_26_);}
	.st13{clip-path:url(#SVGID_28_);fill:#35498C;}
	.st14{clip-path:url(#SVGID_30_);}
	.st15{clip-path:url(#SVGID_32_);fill:#8F6F4F;}
	.st16{clip-path:url(#SVGID_34_);}
	.st17{clip-path:url(#SVGID_36_);fill:#C85241;}
	.st18{clip-path:url(#SVGID_38_);}
	.st19{clip-path:url(#SVGID_40_);fill:#8F6F4F;}
</style>
<g>
	<defs>
		<path id="SVGID_1_" d="M113.6,2.9c-0.7-0.1-1.5,0.1-2.2,0.2c-2.6,0.7-2,2.1-1.8,2.8c-2.5-0.3-4.6-1-6.6-0.8
			c-3.4,0.4-6.9,1-10.2,2.1c-9.2,3-17.7,7.8-26.6,11.8c-2.5,1.1-5,2.3-7.7,2.6c-4.6,0.6-9.2,2.1-13.9,1.5
			c-5.4-0.7-10.8-1.1-16.3-1.3c-5.4-0.2-10.6,0.5-15.7,1.9c-2.3,0.6-4.6,1.6-6.8,2.6c-1.4,0.7-3.1,1.4-3.1,3.4c1,1.3,8.1,1,10.2,1.6
			c8,2.2,16.4,2.5,24.3,5.6c2.2,0.9,17.9,2.2,26.6,0.7c7.3-1.3,14.6-2.9,21.7-5c9.3-2.6,18.4-3.2,27.7-0.2c0.5,5.6,2.2,19.5,3.3,25
			c0.9,4.6,0.8,8.9-0.1,13.4c-0.4,1.9-0.2,4.1-1,5.8c-1.1,2.4-1.3,5-1.5,7.5c-0.5,6.3-1,12.7-1.5,19c-0.1,1-0.4,2-0.6,3.3
			c-1-1.7-1.4-3.2-2.5-4.1c-1.4-1.3-3.2-2.3-5-3.1c-5.2-2.4-10.1,0.3-11.2,5.9c-1.2,6.1-1.8,12.3-1.9,18.5c0,2-0.3,3.8-1.4,5.6
			c-2.5,3.9-3.7,8.4-3.9,12.9c-0.1,5.1-0.3,10.2-0.7,15.2c-0.3,3.7,2.6,5,2.6,5c1.1,0.8,2.3,1.5,3.4,2.3c-0.9,6.4-1.7,24.7-1.9,25.6
			c0,0,0.1,0,0.1,0c0.1,4.1,0.2,8.1,0.3,12.1c0.3,6.3,0.3,29.2,0.7,35.5c0.1,1.5,0.2,2.9,1,4c-0.1,2.5-0.7,16,1.3,18.3
			c1.1,1.3,1.8,2.2,3.3,1.4c3.6-1.9,3.5-6.3,4.2-8.7c0.4-1.3,0.9-6.3,1.4-9.5c0.5,0,1,0,1.4,0.1c0.5,0,0.9,0.1,1.4,0.2
			c-0.2,1.5-0.4,2.8-0.6,3.6c-0.1,1.9-0.6,3.8-0.8,5.8c-0.2,1.8-0.5,3.6-0.6,5.4c0,0.9,0.2,1.8,0.6,2.6c1,1.9,3.9,1.9,4.9,0.1
			c1.5-2.6,2.1-5.1,3.1-8c1-2.7,1.7-5.5,2.3-8.3c1.1,0,2.3,0,3.4-0.1c1.6-3.7,2.1-24.3,2.4-28.1c0.6-8.9,0.7-17.8,0.9-26.8
			c0.1-2.7,0.1-5.3,0.1-8c0.1,0,0.1,0,0.2,0c0.4,0,6-2-0.1-8.1c0-4.6,0.1-9.3,0.1-13.9c0-4.4,0-8.8,0-13.2c0-4.1,0.1-8.2,0.1-12.2
			c0-5.1-0.1-10.3,0-15.4c0.2-6.4,0.6-12.7,0.9-19c0.2-3,0.5-6,1.3-8.8c0.7-0.4,1.3-0.7,1.8-1c3.5-1.9,3.6-1.9,2.9-6
			c-0.4-2.4-1.2-4.7-1.2-7.1c0-4.2-0.2-8.3-1.8-12.4c-1.4-3.6-1.6-7.7-2.1-11.6c-1-7.7-3.3-23.6-4.2-31.3
			c-0.6-5.4-1.3-10.8-2.1-16.2C116.2,3.4,115.7,3,113.6,2.9z M98,109.5c2.3-1,4-1.7,5.9-2.5c2.9,2.9,4.3,6.2,3.8,10.2
			c-0.3,2.8-2.1,3.8-4.8,2.8c-2.2-0.8-3.8-2.2-4.3-4.7C98.4,113.5,98.3,111.6,98,109.5z M98.6,247.7c-0.4,2.7-1,5.9-1.5,8.6
			c-0.3,1.9-5.1,6.4-1.9-12.8c0.7,0,1.4,0,2,0c0.7,0,1.3-0.1,2-0.1C99.1,244.8,98.9,246.2,98.6,247.7z M108.5,254
			c-0.6,1.9-1.4,5.2-2.9,5.2c-0.8-0.5,0.1-4.1,0.2-4.9c0.5-3.5,1.1-6.9,1.6-10.4c1.2,0.2,2.4,0.4,3.6,0.5
			C110.2,247.8,109.4,251.1,108.5,254z M117.1,209.2c-0.1,4.8-2.2,31.7-2.5,32.5c-6.8-1.5-13.7-1.3-20.4-1.8
			c-0.4-0.7-0.8-1.1-0.8-1.5c-0.5-8.7-0.7-33.7-1.1-42.4c-0.1-3-0.3-6-0.2-9c0.1-2.1,0.8-13.8,1.2-17.5c0.1-1.1,0.2-2.3,0.4-3.4
			c5.6,3.7,13.8,6.4,17.4,10c2.3,2.4,6.5,4.6,6.5,4.6C117.5,190.1,117.4,199.7,117.1,209.2z M119.7,179.4c-1.4-0.6-4.4-3.3-5.3-4.4
			c-0.3-0.4-0.2-1.3-0.4-2.7c1.4,0.8,2.6,1.4,3.7,2.1C119.7,175.7,123.1,179.8,119.7,179.4z M120.1,85c0.1,2.8-0.1,5.7-0.3,8.6
			c-0.4,6.3-1,12.7-1.4,19c-0.2,3.6-0.3,7.3-0.4,10.9c-0.1,8.3-0.1,16.6-0.1,25c0,5.1,0.2,10.3,0.2,15.4c0,2.4-0.2,4.8-0.2,7.3
			c0,0.2,0,0.4,0,0.6c0,0-0.1,0-0.1-0.1c-3.4-1.7-6.4-4-9.4-6.3c-4.4-3.4-9.1-6.6-13.6-9.9c0.1-1.1,0.2-2.1,0.3-3.2
			c0.2-2.4,0.5-4.8,0.8-7.2c0.1-1.2,0.1-2.5-1.7-3c-0.2,0.5-0.7,0.9-0.7,1.4c-0.4,4-0.8,8-1.1,12.1c0.2,0.5,0.3,1,0.6,1.4
			c0.4,0.6,6,4.6,8.2,6.2c3.4,2.5,6.8,5,9.6,8.1c-0.6,1.1-1.2,0.8-1.9,0.4c-5.2-2.4-16.8-10.2-17.8-10.9c0,0,0,0-0.1,0
			c-0.9-0.6-1.8-1.2-2.7-1.8c0.1-2.1,0.2-4.3,0.3-6.4c0.1-2.6,0.3-5.1,0.3-7.7c0.1-4.8,1.2-9.3,3.3-13.6c0.4-0.8,1-1.5,1.7-2.5
			c1.9,1.6,3.7,3,5.4,4.5c4.2,3.6,9.3,3.1,12.7-1.2c2-2.6,3.3-5.4,3.1-8.8c-0.2-3.3,0.3-6.7-1.1-9.9c-0.3-0.6-0.1-1.5,0.1-2.2
			c1.7-6.3,1.5-12.9,2.4-19.3c0.4-2.8,0.5-5.7,0.6-8.6c0.1-1.3,0.2-2.5,0.6-3.7l2.4,0C119.9,81.4,120,83.2,120.1,85z M120.2,70.9
			c-0.2,1.9-0.3,3.9-0.3,5.8l-1.3-0.2c0-0.5,0-1,0.1-1.5c0.2-1.9,0.3-3.8,1.2-5.8C119.9,69.8,120.2,70.4,120.2,70.9z M88.8,28.6
			c-8,2.2-16.1,4.3-24.3,5.7C53.9,36,46.4,36.5,26.9,31c-5.5-1.6-11.3-2-16.9-3.1c8.3-3.9,16.9-4,25.5-3.2c2.9,0.3,5.7,0.9,8.6,1
			c2.7,0.1,5.4-0.1,8.1-0.3c2.6-0.2,5.1-0.7,7.6-1.2c1.3-0.3,2.7-0.6,3.9-1.2c5.6-2.6,11.3-5.3,16.9-7.9c5.8-2.7,11.6-5.2,17.8-6.7
			c3.9-0.9,7.8-1.3,11.7,1.4c1.4,5.8,2.4,12.2,2.7,18.7C108.8,27.3,97.6,26.2,88.8,28.6z M122.9,76.5c-1.1-2.8-0.5-4.7,0.6-7.2
			C124.4,72,124.5,74,122.9,76.5z"/>
	</defs>
	<clipPath id="SVGID_2_">
		<use xlink:href="#SVGID_1_"  style="overflow:visible;"/>
	</clipPath>
	<g class="st0">
		<defs>
			<rect id="SVGID_3_" x="-40.7" y="-7718.5" width="1440" height="12597"/>
		</defs>
		<clipPath id="SVGID_4_">
			<use xlink:href="#SVGID_3_"  style="overflow:visible;"/>
		</clipPath>
		<rect x="-2.3" y="-2.1" class="st1" width="135.4" height="269.4"/>
	</g>
</g>
<g>
	<defs>
		<path id="SVGID_5_" d="M98,109.5c2.3-1,4-1.7,5.8-2.5c2.9,2.9,4.3,6.2,3.8,10.2c-0.3,2.8-2.2,3.8-4.8,2.8
			c-2.2-0.8-3.8-2.2-4.3-4.7C98.3,113.5,98.2,111.7,98,109.5"/>
	</defs>
	<clipPath id="SVGID_6_">
		<use xlink:href="#SVGID_5_"  style="overflow:visible;"/>
	</clipPath>
	<g class="st2">
		<defs>
			<rect id="SVGID_7_" x="-40.7" y="-7718.5" width="1440" height="12597"/>
		</defs>
		<clipPath id="SVGID_8_">
			<use xlink:href="#SVGID_7_"  style="overflow:visible;"/>
		</clipPath>
		<rect x="93" y="102" class="st3" width="19.8" height="23.3"/>
	</g>
</g>
<g>
	<defs>
		<path id="SVGID_9_" d="M98.6,247.7c-0.4,2.7-1,5.9-1.5,8.6c-0.3,1.9-5.1,6.4-1.9-12.8c0.7,0,1.4,0,2,0c0.7,0,1.3-0.1,2-0.1
			C99.1,244.8,98.9,246.2,98.6,247.7"/>
	</defs>
	<clipPath id="SVGID_10_">
		<use xlink:href="#SVGID_9_"  style="overflow:visible;"/>
	</clipPath>
	<g class="st4">
		<defs>
			<rect id="SVGID_11_" x="-40.7" y="-7718.5" width="1440" height="12597"/>
		</defs>
		<clipPath id="SVGID_12_">
			<use xlink:href="#SVGID_11_"  style="overflow:visible;"/>
		</clipPath>
		<rect x="89.2" y="238.3" class="st5" width="15.2" height="24.8"/>
	</g>
</g>
<g>
	<defs>
		<path id="SVGID_13_" d="M108.5,254c-0.6,1.9-1.4,5.2-2.9,5.2c-0.8-0.5,0.1-4.1,0.2-4.9c0.5-3.5,1.1-6.9,1.6-10.4
			c1.2,0.2,2.4,0.4,3.6,0.5C110.2,247.8,109.4,251.1,108.5,254"/>
	</defs>
	<clipPath id="SVGID_14_">
		<use xlink:href="#SVGID_13_"  style="overflow:visible;"/>
	</clipPath>
	<g class="st6">
		<defs>
			<rect id="SVGID_15_" x="-40.7" y="-7718.5" width="1440" height="12597"/>
		</defs>
		<clipPath id="SVGID_16_">
			<use xlink:href="#SVGID_15_"  style="overflow:visible;"/>
		</clipPath>
		<rect x="100.2" y="238.9" class="st7" width="15.7" height="25.3"/>
	</g>
</g>
<g>
	<defs>
		<path id="SVGID_17_" d="M117.1,209.2c-0.1,4.8-2.2,31.7-2.5,32.5c-6.8-1.5-13.7-1.3-20.4-1.8c-0.4-0.7-0.8-1.1-0.8-1.5
			c-0.5-8.7-0.7-33.7-1.1-42.4c-0.1-3-0.3-6-0.2-9c0.1-2.1,0.8-13.8,1.2-17.5c0.1-1.1,0.2-2.3,0.4-3.4c5.6,3.7,13.8,6.4,17.4,10
			c2.3,2.4,6.5,4.6,6.5,4.6C117.5,190.1,117.4,199.7,117.1,209.2"/>
	</defs>
	<clipPath id="SVGID_18_">
		<use xlink:href="#SVGID_17_"  style="overflow:visible;"/>
	</clipPath>
	<g class="st8">
		<defs>
			<rect id="SVGID_19_" x="-40.7" y="-7718.5" width="1440" height="12597"/>
		</defs>
		<clipPath id="SVGID_20_">
			<use xlink:href="#SVGID_19_"  style="overflow:visible;"/>
		</clipPath>
		<rect x="87.2" y="161" class="st9" width="35.5" height="85.7"/>
	</g>
</g>
<g>
	<defs>
		<path id="SVGID_21_" d="M119.7,179.4c-1.4-0.6-4.4-3.3-5.3-4.4c-0.3-0.4-0.2-1.3-0.4-2.7c1.4,0.8,2.6,1.4,3.7,2.1
			C119.7,175.7,123.1,179.8,119.7,179.4"/>
	</defs>
	<clipPath id="SVGID_22_">
		<use xlink:href="#SVGID_21_"  style="overflow:visible;"/>
	</clipPath>
	<g class="st10">
		<defs>
			<rect id="SVGID_23_" x="-40.7" y="-7718.5" width="1440" height="12597"/>
		</defs>
		<clipPath id="SVGID_24_">
			<use xlink:href="#SVGID_23_"  style="overflow:visible;"/>
		</clipPath>
		<rect x="109.1" y="167.3" class="st11" width="17.1" height="17.1"/>
	</g>
</g>
<g>
	<defs>
		<path id="SVGID_25_" d="M120.1,85c0.1,2.8-0.1,5.7-0.3,8.6c-0.4,6.3-1,12.7-1.4,19c-0.2,3.6-0.3,7.3-0.4,10.9
			c-0.1,8.3-0.1,16.6-0.1,25c0,5.1,0.2,10.3,0.2,15.4c0,2.4-0.2,4.8-0.2,7.3c0,0.2,0,0.4,0,0.6c0,0-0.1,0-0.1-0.1
			c-3.4-1.7-6.4-4-9.4-6.3c-4.4-3.4-9.1-6.6-13.6-9.9c0.1-1.1,0.2-2.1,0.3-3.2c0.2-2.4,0.5-4.8,0.8-7.2c0.1-1.2,0.1-2.5-1.7-3
			c-0.2,0.5-0.7,0.9-0.7,1.4c-0.4,4-0.8,8-1.1,12.1c0.2,0.5,0.3,1,0.6,1.4c0.4,0.6,6,4.6,8.2,6.2c3.4,2.5,6.8,5,9.6,8.1
			c-0.6,1.1-1.2,0.8-1.9,0.4c-5.2-2.4-16.8-10.2-17.8-10.9c0,0,0,0-0.1,0c-0.9-0.6-1.8-1.2-2.7-1.8c0.1-2.1,0.2-4.3,0.3-6.4
			c0.1-2.6,0.3-5.1,0.3-7.7c0.1-4.8,1.2-9.3,3.3-13.6c0.4-0.8,1-1.5,1.7-2.5c1.9,1.6,3.7,3,5.4,4.5c4.2,3.6,9.3,3.1,12.7-1.2
			c2-2.6,3.3-5.4,3.1-8.8c-0.2-3.3,0.3-6.7-1.1-9.9c-0.3-0.6-0.1-1.5,0.1-2.2c1.7-6.3,1.5-12.9,2.4-19.3c0.4-2.8,0.5-5.7,0.6-8.6
			c0.1-1.3,0.2-2.5,0.6-3.7l2.4,0C119.9,81.4,120,83.2,120.1,85"/>
	</defs>
	<clipPath id="SVGID_26_">
		<use xlink:href="#SVGID_25_"  style="overflow:visible;"/>
	</clipPath>
	<g class="st12">
		<defs>
			<rect id="SVGID_27_" x="-40.7" y="-7718.5" width="1440" height="12597"/>
		</defs>
		<clipPath id="SVGID_28_">
			<use xlink:href="#SVGID_27_"  style="overflow:visible;"/>
		</clipPath>
		<rect x="83.1" y="74.6" class="st13" width="42" height="102.3"/>
	</g>
</g>
<g>
	<defs>
		<path id="SVGID_29_" d="M120.2,70.9c-0.2,1.9-0.3,3.9-0.3,5.8l-1.3-0.2c0-0.5,0-1,0.1-1.5c0.2-1.9,0.3-3.8,1.2-5.8
			C119.9,69.8,120.2,70.4,120.2,70.9"/>
	</defs>
	<clipPath id="SVGID_30_">
		<use xlink:href="#SVGID_29_"  style="overflow:visible;"/>
	</clipPath>
	<g class="st14">
		<defs>
			<rect id="SVGID_31_" x="-40.7" y="-7718.5" width="1440" height="12597"/>
		</defs>
		<clipPath id="SVGID_32_">
			<use xlink:href="#SVGID_31_"  style="overflow:visible;"/>
		</clipPath>
		<rect x="113.5" y="64.2" class="st15" width="11.6" height="17.5"/>
	</g>
</g>
<g>
	<defs>
		<path id="SVGID_33_" d="M88.8,28.6c-8,2.2-16.1,4.3-24.3,5.7C53.9,36,46.4,36.5,26.9,31c-5.5-1.6-11.3-2-16.9-3.1
			c8.3-3.9,16.9-4,25.5-3.2c2.9,0.3,5.7,0.9,8.6,1c2.7,0.1,5.4-0.1,8.1-0.3c2.6-0.2,5.1-0.7,7.6-1.2c1.3-0.3,2.7-0.6,3.9-1.2
			c5.6-2.6,11.3-5.3,16.9-7.9c5.8-2.7,11.6-5.2,17.8-6.7c3.9-0.9,7.8-1.3,11.7,1.4c1.4,5.8,2.4,12.2,2.7,18.7
			C108.8,27.3,97.6,26.2,88.8,28.6"/>
	</defs>
	<clipPath id="SVGID_34_">
		<use xlink:href="#SVGID_33_"  style="overflow:visible;"/>
	</clipPath>
	<g class="st16">
		<defs>
			<rect id="SVGID_35_" x="-40.7" y="-7718.5" width="1440" height="12597"/>
		</defs>
		<clipPath id="SVGID_36_">
			<use xlink:href="#SVGID_35_"  style="overflow:visible;"/>
		</clipPath>
		<rect x="5" y="2.7" class="st17" width="112.8" height="37.7"/>
	</g>
</g>
<g>
	<defs>
		<path id="SVGID_37_" d="M122.8,76.5c-1.1-2.8-0.5-4.7,0.6-7.2C124.3,72.1,124.5,74,122.8,76.5"/>
	</defs>
	<clipPath id="SVGID_38_">
		<use xlink:href="#SVGID_37_"  style="overflow:visible;"/>
	</clipPath>
	<g class="st18">
		<defs>
			<rect id="SVGID_39_" x="-40.7" y="-7718.5" width="1440" height="12597"/>
		</defs>
		<clipPath id="SVGID_40_">
			<use xlink:href="#SVGID_39_"  style="overflow:visible;"/>
		</clipPath>
		<rect x="117.3" y="64.3" class="st19" width="11.8" height="17.2"/>
	</g>
</g>
</svg>
