<?xml version="1.0" encoding="utf-8"?>
<!-- Generator: Adobe Illustrator 24.1.2, SVG Export Plug-In . SVG Version: 6.00 Build 0)  -->
<svg version="1.1" id="Layer_1" xmlns="http://www.w3.org/2000/svg" xmlns:xlink="http://www.w3.org/1999/xlink" x="0px" y="0px"
	 viewBox="0 0 89.6 260" style="enable-background:new 0 0 89.6 260;" xml:space="preserve">
<style type="text/css">
	.st0{fill:#3F43A9;}
	.st1{fill:#D74D36;}
	.st2{fill:#FFA200;}
	.st3{fill:#7BB3A0;}
</style>
<g id="Layer_2_1_">
	<g id="Layer_1-2">
		<path class="st0" d="M43.2,42.5c2.1-0.9,6.2-1.4,10,4.8c0.3,0.5,0.6,1,0.8,1.6c0-1.3-0.2-2.6-0.5-3.8c-1-3.3-4.1-6.6-7.9-6.7
			c-2.2,0-4.5,1-6.5,2.2c-1.1,0.6-2.1,1.3-3,2.1c-1.6,1.7-2.3,4.3-2.3,8.2c0,2.4,0.2,4.8,0.5,7.1c0.1,0.9,0.4,1.9,0.8,2.7
			C33.7,54.7,37.4,44.9,43.2,42.5z"/>
		<path class="st1" d="M21.5,117.8c-0.8-0.8-1.7-1.5-2.8-1.9c-0.6-0.2-1.3-0.3-1.9-0.3h-0.4c-2.2,0.1-4.3,1-6,2.4
			c-1.9,1.6-3.2,3.8-3.6,6.3c-0.5,4.8,2.4,9.4,6.9,11c2.9,1,6.1,0.3,8.3-1.8c2.5-2.3,3.7-5.8,3-9.2
			C24.6,121.8,23.3,119.6,21.5,117.8z"/>
		<path class="st2" d="M43.5,71.2c-0.5,1.5-0.7,3.1-0.5,4.6V86c0,1.9,0.1,3.6,0.9,4.7c0.1,0.1,0.2,0.2,0.3,0.3l0.2-0.2
			c2.5-2.4,2.9-6.4,3.2-10.5c0.1-1.5,0.2-3.4,0.3-5.4c0.1-1.4,0.1-2.7,0.2-3.9c-1.5,0.3-3,0.3-4.5-0.1C43.6,71,43.6,71.1,43.5,71.2z
			"/>
		<path class="st2" d="M50.3,66.2c0.7-1.1,1.2-2.3,1.4-3.6c0.6-3.2,0.7-6.6,0.1-9.8c-0.2-1.3-0.6-2.6-1.3-3.8c-2-3.2-4-4.4-6-3.5
			c-4,1.6-7.4,9.8-6.3,14.8c0.5,2.9,2.3,5.5,4.9,7.1C45.5,68.7,48.8,68.2,50.3,66.2z"/>
		<path class="st2" d="M8.6,102.6c0.1-1.1,0.4-2.1,0.9-3.1c0.6-0.9,1.5-1.7,2.4-2.3l19.5-14.1c0.2-0.3,0.3-0.6,0.5-0.9
			c0.9-1.7,1.7-3.4,2.3-5.2c0.7-2.6,1.1-5.2,1.3-7.8L9.7,89c-3.6,2.7-5.7,5.1-5.8,9.3c-0.1,1.6-0.2,3.3-0.3,5.1
			c-0.4,5.7-0.9,12.1,1,17.1c0.8-1.7,1.9-3.2,3.2-4.5C7.6,111.6,7.9,107.1,8.6,102.6z"/>
		<path class="st2" d="M27.3,181.9l-1.1,9.7l0,0c0,2-0.6,7.9-3.3,27.9c-1.9,14-3.9,28.4-4.2,30.4l-0.1,0.5c-0.3,1.6-0.8,4.4,0,5.4
			c0.1,0.1,0.3,0.4,1.1,0.3c2.6,0,4.3-5.4,5-7.7l0.1-0.2c3.9-12.1,6.5-28.4,9-44.2c1.2-7.4,2.3-14.4,3.5-20.6h-0.9
			C33.3,183.3,30.2,182.8,27.3,181.9z"/>
		<path class="st3" d="M59.9,112.8c-0.1-1.6-0.1-3.2-0.1-4.8s0-2.9-0.1-4.4c-0.1-2.2-0.3-4.3-0.7-6.5c-0.2-1.4-0.3-2.8-0.3-4.2
			c-1.5-0.8-2.6-2-3.4-3.4c-0.8-1.6-1.3-3.4-1.5-5.1c-0.5-2.6-0.9-5.2-1.2-7.8c-0.1-1.5-0.1-3,0-4.5c0-0.6,0-1.1,0.1-1.7v-0.1
			C52.5,70.1,52.3,70,52,70c-0.2,0-0.4-0.1-0.6-0.2c-0.1,1.5-0.2,3.4-0.3,5.3s-0.2,3.9-0.3,5.4c-0.3,4.7-0.8,9.4-4.2,12.7
			c-0.5,0.5-1.1,0.8-1.8,1c-0.2,0-0.4,0.1-0.6,0.1c-1.2,0-2.3-0.7-3-1.7c-1.5-2-1.5-4.6-1.5-6.6V75.8c-0.1-2,0.1-4,0.8-5.8
			c0-0.1,0.1-0.2,0.2-0.3c-0.7-0.4-1.3-0.9-1.8-1.5c-0.2,3.3-0.8,6.5-1.6,9.6c-0.6,2-1.5,4-2.5,5.8c-0.9,1.5-1.6,3.2-2.1,4.9
			c-2.9,10-3.3,20.5-3.5,30.3c0,0.4-0.1,1.5-0.2,3c-0.7,12-0.8,19.2-0.4,21.3c6,0.9,12.1,1.2,18.2,0.9c0.5,0,1.4,0,2.4-0.1
			c5.9-0.1,9.6-0.4,10.9-1.1c0.1-0.1,0.2-0.2,0.4-0.2c0,0,0.1-0.1,0.1-0.1c0.4-0.9,0.5-1.9,0.3-2.9L59.9,112.8z"/>
		<path class="st2" d="M85.9,3.2c-0.3-0.1-1.1,0.6-1.7,1.8c-4,7.9-6.5,16.6-9,25.1C71.7,42.4,68,55,60,65.2
			c-0.8,1.1-1.3,1.8-1.9,2.6s-1.1,1.6-2,2.8l-0.2,0.2c0,0.4,0,0.9,0,1.3c-0.1,1.4-0.1,2.7,0,4.1c0.2,2.6,0.7,5.2,1.1,7.5
			c0.2,1.5,0.6,2.9,1.2,4.2c0.4,0.9,1.1,1.6,2,2.1c7.9-13,12.2-28,16.4-42.4l3.9-13.5c2.7-9.3,5.5-18.9,5.9-28.6
			C86.5,4.2,86.2,3.3,85.9,3.2z"/>
		<path class="st2" d="M48.7,184.5c0.6,17-0.4,35.3-1.2,51.1c-0.3,4.8-0.5,9.4-0.7,13.8c-0.2,1.7-0.1,3.4,0.4,5.1
			c0.3,1.2,1.3,2,2.4,2.2c1.2,0,2.2-1.4,2.7-2.6c0.9-2.5,1.4-5.2,1.5-7.9c0.9-11.2,1.8-25.3,2.7-39c0.5-8.1,1-16.4,1.6-24.1
			c-2.5,1-5.2,1.4-7.9,1.4C49.6,184.6,49.1,184.6,48.7,184.5z"/>
		<path d="M49.4,147.2c-1,0-1.7,0-2.2,0.1c-1.8,0.1-3.5,0.2-5.3,0.2c-3.5,0-6.9-0.2-10.4-0.6l-3.7,31.9c3.3,1.1,6.8,1.6,10.2,1.4
			c0-0.2,0.1-0.4,0.1-0.6c0.8-3.8,1.6-7.5,2.4-11.3c0.2-0.9,0.5-2,0.9-3.2c0.7-2.2,1.7-5.2,1.4-6.6c-0.2-0.9,0.4-1.7,1.2-1.9
			s1.7,0.4,1.9,1.2c1.5,7.8,2.4,15.6,2.7,23.5c3.3,0.3,6.7-0.3,9.8-1.8c0.3-4,0.6-7.8,0.8-11.3c0.1-1.6,0.2-3,0.3-4.4
			c0.7-5.8,0.8-11.7,0.4-17.5C56.4,147,52.9,147.2,49.4,147.2z"/>
		<path d="M86.7,0.1c-2-0.5-4,0.7-5.4,3.5c-4.1,8.1-6.7,17-9.2,25.7c-3.6,12.5-7,24.3-14.6,34c-0.9,1.1-1.5,2-2,2.8
			c-0.3,0.5-0.7,1-1.1,1.6c-0.3-0.2-0.6-0.4-0.9-0.5c0.6-1.2,1.1-2.5,1.3-3.9c0.4-1.8,0.5-3.6,0.5-5.5c1.9-5,2.3-9.7,1.1-13.7
			c-1.6-5.1-6.2-8.8-10.9-8.9c-3,0-5.7,1.2-8.2,2.6c-1.4,0.7-2.7,1.6-3.8,2.7c-2.8,3-3.2,7.3-3.2,10.4c0,2.6,0.2,5.1,0.6,7.7
			c0.2,1.3,0.9,5.4,4.2,6.7l0.3,0.1c-0.2,0.1-0.4,0.1-0.5,0.3L7.8,86.5c-4.1,3.2-6.9,6.3-7.1,11.7c-0.1,1.6-0.2,3.2-0.3,5
			c-0.6,7.4-1.2,15.8,3.1,22.1l0.1,0.1c0,5.9,3.7,11.1,9.2,13c1.2,0.4,2.4,0.6,3.6,0.6c2.9,0,5.7-1.1,7.8-3.1c0.4-0.3,0.7-0.6,1-1
			c-0.2,10.3,0.7,11.1,2.2,11.3l0.8,0.1l-3.8,32.5c-0.1,0.1-0.1,0.2-0.2,0.3c-0.1,0.4-0.1,0.8,0,1.1l-1.3,11c0,0.2,0,0.3,0,0.5
			c-0.1,3.8-6.6,52.5-7.5,57.6l-0.1,0.4c-0.4,2.5-1,5.9,0.7,8c0.9,1,2.2,1.5,3.5,1.5h0.1c4.9-0.1,7-6.7,8-9.9l0.1-0.2
			c3.9-12.3,6.6-28.8,9.1-44.7c1.4-8.9,2.8-17.3,4.3-24.4c0.8-3.7,1.6-7.5,2.4-11.2c0.1-0.5,0.3-1.2,0.5-1.9
			c2.6,20.8,1.2,47,0.1,68.6c-0.3,4.8-0.5,9.5-0.7,13.8c-0.2,2.1,0,4.3,0.6,6.3c0.8,2.2,2.8,4.4,5.4,4.4h0.2
			c2.2-0.1,4.3-1.8,5.5-4.5c1.1-2.9,1.7-5.9,1.8-9c0.9-11.2,1.8-25.4,2.7-39s1.8-27.8,2.7-39c0.1-1.6,0.2-3,0.4-4.3
			c0.7-6.4,0.8-12.9,0.3-19.3c0.2-0.2,0.4-0.5,0.6-0.7c0.7-1.4,0.9-3,0.7-4.6l-1.1-26.8c-0.1-1.6-0.1-3.1-0.1-4.7s0-3-0.1-4.5
			c-0.1-2.3-0.4-4.6-0.8-6.9c0-0.3-0.2-1.9-0.2-3.2c8.8-13.8,13.3-29.6,17.8-44.9l3.9-13.5c2.7-9.5,5.6-19.2,6-29.3
			C89.8,2.7,88.7,0.7,86.7,0.1z M35,60.7c-0.4-0.9-0.7-1.8-0.8-2.7c-0.4-2.4-0.6-4.8-0.6-7.2c0-3.9,0.7-6.5,2.3-8.2
			c0.9-0.9,1.9-1.6,3-2.1c2.1-1.2,4.3-2.2,6.5-2.2c3.8,0.1,6.9,3.4,7.9,6.7c0.4,1.2,0.6,2.5,0.6,3.8c-0.2-0.5-0.5-1.1-0.8-1.6
			c-3.8-6.2-7.9-5.7-10-4.8C37.4,44.9,33.7,54.7,35,60.7z M43,67.3c-2.6-1.6-4.3-4.1-4.9-7.1c-1.2-5,2.3-13.1,6.3-14.8
			c2.1-0.8,4.1,0.3,6,3.5c0.7,1.2,1.1,2.5,1.3,3.8c0.6,3.2,0.6,6.6-0.1,9.8c-0.2,1.3-0.7,2.5-1.4,3.6C48.8,68.2,45.5,68.7,43,67.3z
			 M48,71.1c-0.1,1.2-0.1,2.6-0.2,3.9c-0.1,2-0.2,3.9-0.3,5.4c-0.2,4.2-0.7,8.1-3.2,10.5l-0.2,0.2c-0.1-0.1-0.2-0.2-0.3-0.3
			C43.1,89.6,43,88,43,86V75.8c-0.1-1.6,0.1-3.1,0.6-4.6c0-0.1,0.1-0.2,0.1-0.2C45.1,71.3,46.6,71.3,48,71.1L48,71.1z M3.6,103.4
			c0.1-1.8,0.3-3.5,0.3-5.1c0.1-4.1,2.2-6.5,5.8-9.3l25.8-19.8c-0.2,2.6-0.7,5.2-1.3,7.8c-0.6,1.8-1.3,3.6-2.2,5.2
			c-0.2,0.3-0.3,0.6-0.5,0.9L12,97.2c-0.9,0.6-1.8,1.4-2.4,2.3c-0.5,1-0.8,2-0.9,3.1c-0.7,4.4-1,9-0.8,13.4
			c-1.4,1.3-2.5,2.8-3.2,4.5C2.7,115.5,3.2,109.2,3.6,103.4z M22.1,133.5c-2.2,2.1-5.4,2.8-8.3,1.8c-4.6-1.6-7.5-6.1-6.9-10.9
			c0.4-2.5,1.7-4.7,3.6-6.3c1.7-1.4,3.8-2.3,6-2.4h0.4c0.6,0,1.3,0.1,1.9,0.3c1.1,0.4,2,1.1,2.8,1.9c1.8,1.7,3.1,4,3.7,6.5
			C25.8,127.7,24.7,131.2,22.1,133.5L22.1,133.5z M26,118.3c-0.7-1-1.4-1.9-2.2-2.7c-1.1-1.2-2.5-2.1-4-2.7
			c-1.1-0.4-2.2-0.5-3.4-0.4c-1.8,0.1-3.7,0.6-5.3,1.4c0-3.6,0.3-7.2,0.8-10.8c0.1-0.7,0.2-1.3,0.5-1.9c0.4-0.6,0.9-1,1.5-1.4
			l15.5-11.2C26.7,98.6,26.2,109.1,26,118.3z M33.7,203.9c-2.5,15.8-5.1,32.1-9,44.2l-0.1,0.2c-0.7,2.3-2.4,7.6-5,7.7
			c-0.8,0-1-0.2-1.1-0.3c-0.8-0.9-0.3-3.8,0-5.4l0.1-0.5c0.4-2,2.4-16.4,4.2-30.4c2.6-19.9,3.3-25.8,3.3-27.9l0,0l1.1-9.7
			c2.9,0.9,5.9,1.4,9,1.4h0.9C36.1,189.5,34.9,196.5,33.7,203.9L33.7,203.9z M56.4,207.2c-0.9,13.7-1.8,27.8-2.7,39
			c-0.1,2.7-0.6,5.4-1.5,7.9c-0.5,1.2-1.6,2.6-2.7,2.6c-1.2-0.2-2.1-1.1-2.4-2.2c-0.5-1.7-0.6-3.4-0.4-5.1c0.2-4.3,0.4-9,0.7-13.8
			c0.8-15.9,1.8-34.2,1.2-51.1c0.5,0,1,0.1,1.5,0.1c2.7,0,5.4-0.5,7.9-1.5C57.5,190.8,57,199.1,56.4,207.2L56.4,207.2z M59.4,163.8
			c-0.1,1.3-0.2,2.8-0.3,4.4c-0.3,3.5-0.6,7.4-0.8,11.3c-3,1.4-6.4,2-9.8,1.8c-0.3-7.9-1.2-15.8-2.7-23.5c-0.2-0.9-1-1.4-1.9-1.2
			s-1.4,1-1.2,1.9c0.3,1.4-0.7,4.4-1.4,6.6c-0.4,1.2-0.7,2.3-0.9,3.2c-0.8,3.8-1.6,7.5-2.4,11.3c0,0.2-0.1,0.4-0.1,0.6
			c-3.5,0.2-6.9-0.3-10.2-1.4l3.7-31.9c3.4,0.4,6.9,0.6,10.4,0.6c1.8,0,3.6-0.1,5.3-0.2c0.5,0,1.3,0,2.2-0.1c3.5,0.1,7-0.2,10.5-0.8
			C60.2,152.2,60.1,158,59.4,163.8L59.4,163.8z M60.6,142.5c0,0-0.1,0.1-0.1,0.1c-0.1,0.1-0.2,0.1-0.4,0.2c-1.3,0.7-5,1-10.9,1.1
			c-1,0-1.9,0-2.4,0.1c-6.1,0.4-12.2,0.1-18.2-0.9c-0.5-2.1-0.4-9.3,0.4-21.3c0.1-1.5,0.1-2.6,0.2-3c0.2-9.8,0.6-20.3,3.5-30.3
			c0.5-1.7,1.3-3.3,2.1-4.9c1-1.8,1.9-3.8,2.5-5.8c0.8-3.2,1.3-6.4,1.6-9.6c0.6,0.6,1.2,1.1,1.8,1.5c-0.1,0.1-0.1,0.2-0.2,0.3
			c-0.7,1.9-0.9,3.9-0.8,5.8V86c0,1.9,0,4.6,1.5,6.6c0.7,1,1.8,1.6,3,1.7c0.2,0,0.4,0,0.6-0.1c0.7-0.2,1.3-0.5,1.8-1
			c3.3-3.2,3.9-8,4.2-12.6c0.1-1.5,0.2-3.5,0.3-5.4s0.2-3.8,0.3-5.3C51.5,70,51.8,70,52,70c0.2,0,0.5,0.1,0.6,0.3v0.1
			c0,0.6,0,1.1-0.1,1.7c-0.1,1.5-0.1,3,0,4.5c0.3,2.6,0.6,5.2,1.2,7.8c0.2,1.8,0.8,3.5,1.5,5.1c0.7,1.5,1.9,2.7,3.4,3.5
			c0,1.4,0.1,2.8,0.3,4.2c0.4,2.1,0.6,4.3,0.7,6.5c0.1,1.5,0.1,2.9,0.1,4.4s0,3.2,0.1,4.8l1.1,26.8C61.2,140.6,61,141.6,60.6,142.5
			L60.6,142.5z M86.4,5.6c-0.4,9.7-3.2,19.3-5.9,28.6l-3.9,13.5c-4.2,14.5-8.5,29.4-16.4,42.4c-0.9-0.5-1.6-1.2-2-2.1
			c-0.6-1.3-1-2.8-1.2-4.2c-0.4-2.2-0.9-4.9-1.1-7.5c-0.1-1.4-0.1-2.7,0-4.1c0-0.4,0-0.9,0-1.3l0.2-0.2c0.9-1.2,1.5-2,2.1-2.8
			s1-1.5,1.9-2.6C68,55,71.7,42.4,75.2,30.2c2.5-8.5,5-17.2,9-25.1c0.6-1.2,1.4-1.9,1.7-1.8S86.5,4.2,86.4,5.6z"/>
	</g>
</g>
</svg>
