<?xml version="1.0" encoding="utf-8"?>
<!-- Generator: Adobe Illustrator 24.1.2, SVG Export Plug-In . SVG Version: 6.00 Build 0)  -->
<svg version="1.1" id="Layer_1" xmlns="http://www.w3.org/2000/svg" xmlns:xlink="http://www.w3.org/1999/xlink" x="0px" y="0px"
	 viewBox="0 0 77.4 260" style="enable-background:new 0 0 77.4 260;" xml:space="preserve">
<style type="text/css">
	.st0{fill:#FFA200;}
	.st1{fill:#7BB3A0;}
	.st2{fill:#A57C52;}
	.st3{fill:#3F43A9;}
</style>
<g id="Layer_2_1_">
	<g id="Layer_1-2">
		<path class="st0" d="M5.8,10.4c1.5-1,2.5-2.5,2.9-4.3C8.5,5.7,8.2,5.4,8,5.1c-0.2-0.3-0.3-0.6-0.3-1C7.3,3.9,7,3.7,6.6,3.6
			C6.3,3.5,6,3.5,5.7,3.5c-0.5,0-1,0.1-1.4,0.4C3,4.8,3.6,7.4,4.3,9.5c0.1,0.3,0.2,0.5,0.4,0.8C4.9,10.5,5.2,10.7,5.8,10.4z"/>
		<path class="st0" d="M42.7,59.4c1.2,2.1,3.5,3.3,5.8,3c4.8-0.2,8.6-2.1,10.6-5.5c2.2-3.7,2.2-8.7-0.2-13.5
			c-1.1-2.4-3.1-4.3-5.7-5.1c-3.9-1-8,1.8-9.8,5l0,0C41,47.5,40.1,55.2,42.7,59.4z"/>
		<path class="st0" d="M71.5,148.1c-0.4,0.1-0.7,0.1-1.1,0.1c0.2,1.7,0.3,3.4,0.5,5.1c0.3,0,0.6,0.1,0.9,0.3c0.5,0.4,1,0.8,1.4,1.3
			l0.2,0.2c0.2-1.1,0.1-2.2-0.4-3.2L71.5,148.1z"/>
		<path class="st2" d="M39.4,60.8c-3-5.6-1.9-14.2,1-19.3l0,0c2.5-4.4,8.1-8.1,13.8-6.6c3.5,1.1,6.4,3.6,7.9,7
			c2.9,5.8,2.9,12.1,0,16.8c-1.3,2.2-3.2,4-5.5,5.2h0.5c1-0.1,1.9-0.2,2.9-0.4c2-0.5,4-0.6,6-0.3c2.6-8.1,2.8-16.8,0.6-25
			c-1.4-5.3-3.7-8.7-6.8-10.1c-2.1-1-4.6-1-7.6-1c-2.6,0-5.8,0.1-8.3,1.4c-1.7,0.9-3.1,2.2-4.2,3.8c-5.4,7.4-5.4,16.4-4.8,26.7
			C36.4,59.7,37.9,60.3,39.4,60.8z"/>
		<path class="st1" d="M53.7,105.7c0.7,0.5,1.7,0.4,2.2-0.3c0.2-0.2,0.3-0.5,0.3-0.9c0.1-0.6,0-1.1-0.4-1.6
			c-0.1-0.1-0.3-0.2-0.5-0.3c-0.5,0.3-1.1,0.3-1.6,0c-0.1,0.1-0.2,0.2-0.3,0.2c-0.7,0.5-0.9,1.5-0.4,2.2
			C53.2,105.4,53.4,105.6,53.7,105.7L53.7,105.7z"/>
		<path class="st3" d="M29.5,198c-0.7,0-1.4,0-2.1,0c0.5,9.9,1,19.8,1.5,29.8l0.7,15.2c0.1,2.5,0.4,4.9,0.8,7.4
			c0.2,1.1,0.4,2.3,0.8,3.3c0.2,0.4,0.4,0.8,0.7,1.1c0.2,0.2,0.4,0.3,0.6,0.4c0.2,0,0.4,0,0.5-0.2c0.3-0.3,0.5-0.6,0.6-0.9
			c0.4-1,0.6-2,0.7-3.1l0.3-7.6l0.7-15.2L36,213l0.8-14.1l-2-0.4C33,198.3,31.2,198.1,29.5,198z"/>
		<path class="st1" d="M65.5,129.7c-1.5-14.7-1.6-29.5-1.7-44.2c0-1,0.8-1.8,1.8-1.8s1.8,0.8,1.8,1.8l0,0c0,14.7,0.1,29.4,1.4,44
			c0.4,5.1,0.9,10.2,1.4,15.3c0.6,0.1,1.2-0.1,1.6-0.7c0.2-0.5,0.3-1.1,0.4-1.7c2.3-20.4,2-40.4,1.5-59.7c-0.1-3.8-0.2-7.2-1.5-10.2
			c-1-2.5-3.3-5.4-6.5-6c-1.2-0.1-2.3-0.1-3.5,0.1c1.2,3.9,0,8.2-0.9,11.2c-2,7.1-3.7,14.2-4.8,21.5c0.8,0.2,1.5,0.6,2,1.2
			c2,2.3,1.8,5.8-0.5,7.8c-0.3,0.3-0.7,0.5-1.1,0.7c-0.7,0.3-1.4,0.4-2.1,0.4c-1,0-1.9-0.3-2.8-0.8c-2.5-1.3-3.5-4.3-2.2-6.8
			c0.3-0.6,0.8-1.2,1.3-1.6c0.5-0.5,1.1-0.8,1.8-1.1c1.2-7.5,2.9-15,5-22.3c1-3.6,1.8-7,0.7-9.7c-0.4,0-0.8,0.1-1.2,0.1
			c-3.1,0.1-6.1-0.3-9.1-1.1c-1-0.2-2.2-0.4-3.4-0.7c-1.6-0.3-3.2-0.6-4.9-1c0,0.2-0.1,0.4-0.3,0.6c-0.9,1.4-1,3.4-0.3,6.2
			c0.1,0.5,0.3,1,0.4,1.5c0.7,2.1,1.1,4.3,1.1,6.6c3.2,0.5,6,3.9,6.7,6.6c0.8,3.1,0,6.2-0.9,8.8l-0.5,1.4c-0.8,1.9-1.3,3.8-1.5,5.8
			c0,0.3,0,0.7,0,1c0,1.1-0.1,2.2-0.4,3.2c-0.5,1.9-2.2,3.2-4.1,3.3c-0.3,0-0.5,0-0.8-0.1c-1-0.2-1.6-1.1-1.4-2.1
			c0.2-1,1.1-1.6,2.1-1.4c0.1,0,0.6-0.3,0.8-0.9c0.2-0.7,0.3-1.5,0.2-2.2c0-0.4,0-0.8,0-1.2c0.2-2.3,0.8-4.6,1.7-6.7
			c0.2-0.4,0.3-0.9,0.5-1.3c0.7-2.1,1.4-4.5,0.8-6.7c-0.5-2-2.8-4.2-4.2-4h-0.5c-2.2-0.3-4,1-5.1,3.3s-0.5,4.8,0.1,7.5
			c0.6,2,0.9,4.2,0.8,6.3c-0.1,0.9-0.3,1.8-0.6,2.7c-0.2,0.6-0.4,1.2-0.5,1.9c0,0.8,0.3,1.5,0.9,2c0.8,0.5,1.1,1.6,0.6,2.4
			c-0.5,0.8-1.6,1.1-2.4,0.6c-0.2-0.1-0.3-0.2-0.4-0.4c-1.4-1.2-2.2-3-2.1-4.8c0.1-1,0.3-1.9,0.6-2.9c0.2-0.6,0.4-1.2,0.5-1.8
			c0-1.8-0.2-3.5-0.7-5.2c-0.7-2.9-1.5-6.2,0.1-9.7c1.1-2.7,3.4-4.7,6.2-5.3l0,0c0.1-1.9-0.3-3.8-0.9-5.6c-0.2-0.5-0.3-1-0.4-1.6
			c-1-3.7-0.8-6.6,0.6-8.8c-3.1-1.1-5.8-2.9-7.2-5.8c-4.5-9.4-8.4-19-11.6-28.9c-0.4-1.1-0.7-2.3-1.1-3.5
			c-1.5-5.3-3.5-10.5-5.9-15.5c-0.7,1.2-1.6,2.3-2.7,3.1c4.2,13.7,8.4,27.4,12.5,41.2l5.9,21.3c0.5,1.8,1,3.5,1.6,5.3
			c0.6,1.9,1,3.8,1.2,5.7c0.4,3.8,0.4,7.6-0.1,11.4c-0.4,3.7-1,7.4-1.5,11l-1.5,10.9c-1,7.3-1.8,14.6-2.6,21.9l-2.2,21.9
			c-0.7,7.3-1.4,14.6-1.8,22c-0.2,1.8-0.2,3.7-0.1,5.5l0.1,2.8c0,0.3,0,0.7,0,1c0.1,0,0.2,0,0.3,0c0.4,0,0.8,0.1,1.2,0.1
			c0.4,0,0.9,0,1.3,0l1.4-0.1c1.8-0.1,3.7-0.2,5.6-0.2c3.8,0.2,7.5,0.8,11.2,1.6c3.5,0.8,7.1,1.4,10.6,1.7c3.5,0.2,7.2,0.1,10.9,0
			c1.8,0,3.7,0,5.6,0.1h0.4l0.3-2.6c0.7-7.3,0.9-14.6,0.6-21.9C68.7,159,66.8,144.4,65.5,129.7z"/>
		<path class="st3" d="M51.2,201.2c-0.8,0-1.6-0.1-2.3-0.2c1.6,9.5,2.6,19,2.9,28.6c0.2,5.1,0.2,10.2,0,15.4
			c-0.2,2.5-0.2,4.9,0.1,7.4c0.1,1.1,0.4,2.2,0.9,3.3c0.2,0.4,0.5,0.9,0.8,1.2c0.2,0.2,0.5,0.4,0.8,0.4c0.3,0,0.7-0.1,0.9-0.3
			c0.3-0.2,0.6-0.6,0.8-0.9c0.5-1,0.8-2.1,1-3.2c0.5-2.5,1-4.9,1.4-7.4c0.8-5,1.4-10,1.8-15c0.6-9.7,0.2-19.5-1.2-29.1
			C56.4,201.3,53.8,201.3,51.2,201.2z"/>
		<path d="M75.5,142.8c2.4-20.6,1.9-40.7,1.5-60.1c-0.1-4-0.3-7.9-1.7-11.5c-1.1-3-3.3-5.4-6-7c2.8-8.8,3.1-18.2,0.7-27.1
			c-1.7-6.3-4.7-10.5-8.8-12.3c-3-1.4-6.4-1.3-9.1-1.3c-2.9,0-6.6,0.1-9.8,1.8c-2.1,1.2-3.9,2.8-5.3,4.8c-5,6.8-5.9,14.6-5.8,23.2
			c-3.9-8.3-7.2-16.8-10-25.5c-0.4-1.1-0.7-2.3-1.1-3.4c-2.1-6.6-4.2-13.3-8-19.3c0,0,0-0.1,0-0.1c-0.1-0.5-0.2-1-0.5-1.5l0,0
			c-0.9-1.6-2.5-2.8-4.3-3.2C5.6-0.3,3.7,0,2.2,1c-3.5,2.6-2,7.5-1.3,9.6c0.2,0.9,0.7,1.7,1.4,2.4c0.7,0.6,1.6,0.9,2.5,1l12.3,41.1
			c2,7,3.9,14.2,5.9,21.2c0.5,1.8,1,3.6,1.6,5.3c0.5,1.7,0.9,3.4,1.1,5.1c0.4,3.5,0.4,7.1,0,10.6c-0.4,3.6-1,7.2-1.5,10.9l-1.5,11
			c-0.9,7.3-1.8,14.7-2.6,22c-0.8,7.3-1.4,14.7-1.8,22l-1.1,22.1c0,1.8-0.2,3.7-0.5,5.5l-0.4,2.7c-0.1,0.4-0.1,0.9-0.2,1.4v0.4
			c0,0.3,0,0.6,0.1,0.9c0.1,0.4,0.3,0.7,0.6,1c0.2,0.2,0.4,0.4,0.7,0.6c0.6,0.3,1.3,0.5,2,0.6c0.5,0.1,1.1,0.1,1.6,0.1
			c0.5,0,1,0,1.5,0l1.4-0.1h0.5c0.3,9.9,0.6,19.9,1,29.8c0.2,5.1,0.4,10.1,0.6,15.3c0.1,2.6,0.4,5.2,0.8,7.8
			c0.1,0.6,0.2,1.3,0.4,1.9c0.1,0.7,0.3,1.4,0.6,2c0.3,0.8,0.8,1.5,1.3,2.1c0.7,0.8,1.7,1.3,2.7,1.4c1.1,0.1,2.2-0.2,3-0.9
			c0.7-0.6,1.2-1.3,1.6-2.1c0.6-1.4,0.9-2.9,0.9-4.4l0.2-7.6l0.5-15.2l0.4-15.3l0.3-13.8l1,0.2c2.2,0.4,4.4,0.8,6.7,1.2
			c1.4,9.6,2.3,19.3,2.5,28.9c0.1,5.1,0.1,10.1-0.2,15.2c-0.2,2.6-0.2,5.2,0,7.9c0.2,1.4,0.5,2.8,1.1,4.1c0.3,0.7,0.7,1.4,1.3,2
			c0.7,0.7,1.6,1.2,2.6,1.3c1.8,0.1,3.6-1,4.4-2.6c0.6-1.3,1-2.6,1.2-4c0.5-2.5,1-5,1.3-7.6c0.8-5.1,1.3-10.2,1.7-15.3
			c0.6-9.8,0.6-19.6-0.3-29.4c1.8,0,3.6-0.1,5.4,0h0.7c0.4,0,0.8-0.1,1.2-0.2c0.6-0.2,1.1-0.7,1.3-1.3c0.2-0.4,0.2-0.7,0.3-1.1
			l0.2-2.8c0.6-7.4,0.8-14.8,0.5-22.2c-0.1-5.2-0.5-10.3-0.9-15.4c0.6,0.5,1.3,0.8,2.1,0.9c0.5,0,1-0.1,1.4-0.4
			c2.3-1.2,2.9-4.2,1.5-7.9l-1.8-4.6c0.1-0.1,0.2-0.2,0.2-0.4C75.2,144.8,75.5,143.8,75.5,142.8z M39.8,32.2
			c1.1-1.6,2.5-2.8,4.2-3.8c2.5-1.3,5.7-1.3,8.3-1.4c3,0,5.5,0,7.6,1c3.1,1.4,5.4,4.8,6.8,10.1c2.2,8.2,2,16.9-0.6,25
			c-2-0.2-4-0.1-6,0.3c-1,0.2-1.9,0.3-2.9,0.4h-0.5c2.2-1.2,4.1-3,5.5-5.2c2.8-4.7,2.8-11,0-16.9c-1.5-3.4-4.4-5.9-7.9-7
			C48.5,33.4,43,37,40.5,41.5l0,0c-2.9,5-4,13.7-1,19.3c-1.6-0.4-3.1-1.1-4.5-1.9C34.4,48.6,34.4,39.5,39.8,32.2z M53.3,38.2
			c2.5,0.8,4.6,2.7,5.7,5.1c2.3,4.8,2.4,9.8,0.2,13.5c-2,3.4-5.8,5.3-10.6,5.5c-2.4,0.3-4.7-0.9-5.8-3c-2.5-4.2-1.6-11.9,0.8-16.2
			l0,0C45.3,40,49.4,37.2,53.3,38.2z M4.3,3.9c0.4-0.3,0.9-0.4,1.4-0.4c0.3,0,0.6,0,0.9,0.1C7,3.7,7.3,3.9,7.7,4.1
			C7.7,4.4,7.8,4.7,8,5c0.2,0.3,0.5,0.7,0.7,1c-0.4,1.7-1.4,3.3-2.9,4.3c-0.7,0.4-0.9,0.2-1.2,0C4.5,10,4.3,9.8,4.3,9.5
			C3.6,7.4,3,4.8,4.3,3.9z M19.8,195.4L19.8,195.4z M36,213l-0.7,15.2l-0.7,15.2l-0.3,7.6c0,1.1-0.3,2.1-0.7,3.1
			c-0.1,0.3-0.4,0.7-0.6,0.9c-0.1,0.1-0.3,0.2-0.5,0.2c-0.2,0-0.5-0.2-0.6-0.4c-0.3-0.3-0.5-0.7-0.7-1.1c-0.4-1.1-0.7-2.2-0.8-3.3
			c-0.4-2.4-0.7-4.9-0.8-7.4l-0.7-15.2c-0.4-9.9-0.9-19.9-1.5-29.8c0.7,0,1.4-0.1,2.1,0c1.8,0.1,3.5,0.3,5.2,0.6l2,0.4L36,213z
			 M60.2,230.3c-0.3,5-0.9,10-1.8,15c-0.4,2.5-0.9,5-1.4,7.4c-0.2,1.1-0.5,2.2-1,3.2c-0.2,0.4-0.5,0.7-0.8,0.9
			c-0.3,0.2-0.6,0.3-0.9,0.3c-0.3,0-0.6-0.2-0.8-0.4c-0.3-0.4-0.6-0.8-0.8-1.2c-0.5-1-0.8-2.1-0.9-3.3c-0.2-2.5-0.2-4.9-0.1-7.4
			c0.2-5.1,0.2-10.2,0-15.4c-0.3-9.6-1.3-19.1-2.9-28.6c0.8,0.1,1.6,0.2,2.3,0.2c2.6,0.1,5.2,0.1,7.7,0
			C60.4,210.8,60.8,220.6,60.2,230.3L60.2,230.3z M68.6,195.5l-0.3,2.5h-0.4c-1.9-0.1-3.8-0.1-5.6-0.1c-3.7,0.1-7.3,0.2-10.9,0
			c-3.6-0.3-7.1-0.9-10.7-1.7c-3.7-0.9-7.4-1.4-11.2-1.6c-2,0-3.8,0.1-5.6,0.2l-1.4,0.1c-0.5,0-0.9,0-1.3,0c-0.4,0-0.8,0-1.2-0.1
			c-0.1,0-0.2,0-0.3,0c0-0.3,0-0.7,0-1l-0.1-2.8c-0.1-1.8-0.1-3.7,0.1-5.5c0.4-7.3,1.1-14.6,1.8-22l2.2-21.9
			c0.8-7.3,1.6-14.6,2.6-21.9l1.5-10.9c0.5-3.6,1.1-7.3,1.5-11c0.5-3.8,0.5-7.6,0.1-11.4c-0.2-1.9-0.7-3.8-1.2-5.7
			c-0.5-1.7-1.1-3.5-1.6-5.3l-5.9-21.3C16.6,40.4,12.4,26.7,8.2,13c1.1-0.8,2-1.9,2.7-3.1c2.4,5,4.3,10.2,5.9,15.5
			c0.4,1.2,0.7,2.3,1.1,3.5c3.2,9.9,7.1,19.5,11.6,28.8c1.4,3,4.2,4.7,7.3,5.8c-1.4,2.2-1.5,5.1-0.6,8.8c0.1,0.5,0.3,1,0.4,1.6
			c0.7,1.8,1,3.7,0.9,5.6l0,0c-2.8,0.6-5.1,2.6-6.2,5.3c-1.5,3.5-0.8,6.8-0.1,9.7c0.5,1.7,0.8,3.5,0.7,5.3c-0.1,0.6-0.2,1.2-0.5,1.8
			c-0.4,0.9-0.6,1.9-0.6,2.9c-0.1,1.8,0.7,3.6,2.1,4.8c0.7,0.7,1.8,0.6,2.5-0.1s0.6-1.8-0.1-2.5c0,0-0.1-0.1-0.2-0.1
			c-0.6-0.5-0.9-1.2-0.9-2c0.1-0.6,0.2-1.3,0.5-1.9c0.3-0.9,0.5-1.8,0.6-2.7c0-2.1-0.2-4.2-0.8-6.3c-0.6-2.7-1.2-5.1-0.1-7.5
			s2.9-3.6,5.1-3.3H40c1.4-0.2,3.7,2,4.2,4c0.6,2.2-0.1,4.6-0.8,6.7c-0.2,0.4-0.3,0.9-0.5,1.3c-0.9,2.2-1.5,4.4-1.7,6.7
			c0,0.4,0,0.8,0,1.2c0,0.7,0,1.5-0.2,2.2c-0.2,0.6-0.7,0.9-0.8,0.9c-0.9-0.2-1.9,0.4-2.1,1.4s0.4,1.9,1.4,2.1
			c0.2,0.1,0.5,0.1,0.8,0.1c1.9-0.1,3.6-1.5,4.1-3.3c0.3-1.1,0.4-2.2,0.4-3.2c0-0.3,0-0.7,0-1c0.2-2,0.7-3.9,1.5-5.8l0.5-1.4
			c0.9-2.6,1.7-5.7,0.9-8.8c-0.7-2.7-3.4-6.1-6.7-6.6c0.1-2.2-0.3-4.4-1-6.5c-0.1-0.5-0.3-1-0.4-1.5c-0.8-2.8-0.7-4.9,0.3-6.2
			c0.1-0.2,0.2-0.4,0.3-0.6c1.7,0.4,3.3,0.7,4.9,1c1.2,0.2,2.4,0.4,3.4,0.7c3,0.8,6,1.2,9.1,1.1c0.4,0,0.8-0.1,1.2-0.1
			c1,2.7,0.3,6.1-0.7,9.7c-2.1,7.3-3.8,14.8-5,22.3c-0.7,0.2-1.3,0.6-1.8,1.1c-2.2,1.8-2.5,5-0.7,7.1c0.4,0.5,1,1,1.6,1.3
			c0.8,0.5,1.8,0.7,2.8,0.8c0.7,0,1.4-0.2,2.1-0.4c2.7-1.4,3.7-4.7,2.3-7.4c-0.2-0.4-0.5-0.8-0.8-1.1c-0.5-0.6-1.2-1-2-1.2
			c1.2-7.3,2.8-14.4,4.8-21.5c0.8-3,2-7.3,0.9-11.2c1.1-0.2,2.3-0.2,3.5-0.1c3.2,0.6,5.5,3.5,6.5,6c1.2,3.1,1.4,6.4,1.5,10.2
			c0.4,19.3,0.8,39.2-1.5,59.6c0,0.6-0.2,1.1-0.4,1.7c-0.3,0.5-0.9,0.8-1.6,0.7c-0.5-5.1-1-10.2-1.4-15.3
			c-1.3-14.6-1.4-29.2-1.4-43.9l0,0c0-1-0.8-1.8-1.8-1.8s-1.8,0.8-1.8,1.8c0.1,14.7,0.3,29.5,1.7,44.2s3.2,29.3,3.7,43.9
			C69.5,180.9,69.3,188.2,68.6,195.5L68.6,195.5z M53.4,102.9c0.1-0.1,0.2-0.2,0.3-0.2c0.5,0.3,1.1,0.3,1.6,0
			c0.2,0.1,0.3,0.1,0.5,0.3c0.4,0.4,0.5,1,0.4,1.6c-0.1,1-1,1.6-1.9,1.5s-1.6-1-1.5-1.9C52.8,103.7,53,103.2,53.4,102.9L53.4,102.9z
			 M73.4,155.2l-0.2-0.2c-0.4-0.5-0.9-1-1.4-1.3c-0.3-0.2-0.6-0.3-0.9-0.3c-0.2-1.7-0.3-3.4-0.5-5.1c0.4,0,0.7-0.1,1.1-0.1L73,152
			C73.5,153,73.6,154.1,73.4,155.2L73.4,155.2z"/>
	</g>
</g>
</svg>
