<?xml version="1.0" encoding="utf-8"?>
<!-- Generator: Adobe Illustrator 24.1.2, SVG Export Plug-In . SVG Version: 6.00 Build 0)  -->
<svg version="1.1" id="Layer_2" xmlns="http://www.w3.org/2000/svg" xmlns:xlink="http://www.w3.org/1999/xlink" x="0px" y="0px"
	 viewBox="0 0 57.8 260" style="enable-background:new 0 0 57.8 260;" xml:space="preserve">
<style type="text/css">
	.st0{fill:#7BB3A0;}
	.st1{fill:#FAAF3B;}
	.st2{fill:#A57C52;}
	.st3{fill:#FFA200;}
	.st4{fill:#3F43A9;}
</style>
<g>
	<path d="M55.7,184.9c1.3-10.9,2-13.8,2.1-22.4c0.1-6-1.4-16.7-1.8-23.8c-0.3-5.4,2.4-10,1.7-19.2c-0.4-5.1-1.1-10-3.3-15.8
		c-1.2-3.2-3.2-6-4.5-9.2c-1-2.3-2.1-4.7-2.3-7.1c-0.4-4.8-0.6-9.7-0.2-14.5c1.2-12.8,0.8-25.4-0.8-38.1c-0.4-3.2-0.4-6.4-0.6-9.8
		c1.6-0.3,3-0.4,4.3-0.9c2.6-1,4.1-3.8,3.7-6.5c-0.3-2.4-2.1-2.9-4.2-3.4c-1.9-0.4-3.7-1.2-5.4-2.1c-1.8-1-3.6-1.6-5.6-1
		c-0.8,0.2-1.8,0.5-2.6,0.4c-3.9-0.5-7.8-1.2-11.6-1.8c-1.1-2-1.9-3.8-3-5.4c-1.4-2.2-3.4-3.4-6.1-3.9C4.2-1.9,2.1,7,1.5,8.1
		c1.7,0.9,7,0.9,8.3,1.7l-0.7,6.2L0,15.5c0.6,5.9,2.9,9.9,7.7,10.2c3.4,0.2,7.8,0.2,10.6-1.8c2.8-2,4.9-2.4,8-1.9
		c2.8,0.5,5.5,1.3,8,1.9c4.1,10.7,4.1,40.7,0.1,50.5c-2.1-0.6-3.7-1.9-5.2-3.9c0.1-1.6,0.5-5.8-4.1-8.4c-5.1-2.9-7.5-2-12.1,0.7
		c-2.5,1.5-3.5,8.5-2.9,10.5c0.7,2.3,0.1,3.4-0.7,5.7c-1.9,5.6-3.1,11.4-3.2,17.4c0,2.3-0.2,4.7-0.9,6.9c-2.7,7.9-2.5,15.9-1.3,24
		c1.2,8.2,2.7,16.3,3.7,24.5c0.5,4.1,1,8.1,2.6,11.7c-1.7,3.5-1.7,6.8-1,10.3c0.5,2.5,2.2,3.9,3.7,4.8c0.2,9.9,0,19.2,0.6,28.5
		c0.6,10,5.1,43.2,9.1,51.3c1.1,2.2,3.2,2.1,5,0.4c1.6-1.6,2.5-3.5,2.4-5.8c-0.2-3.4-0.4-6.8-0.7-10.2c-0.2-2.9-0.7-5.7-0.7-8.6
		c0.1-5,0.7-10,1-15c0.4-6.1,1.2-12.2,1-18.3c-0.2-6.8,2.4-19.3,5.2-22.2c0.6,3.2,3.1,19,1.9,31.9c-0.7,7.7-1.3,15.4-1.8,23.1
		c-0.4,7-0.1,11.3-0.2,18.3c0,1.6,0.4,3.2,0.8,4.8c0.4,1.5,1.5,2.3,3.2,2.2c4.1-0.3,4.7-4.2,5.2-6.5
		C49.1,232.4,54.8,194.4,55.7,184.9z M33.8,19.2c-4.7-0.7-9.5-1.4-14.2-2.1c-2.9,3.5-6.5,4.9-10.5,5c-1.8,0.1-3.9-1.3-5.3-3.5
		l8.7,0.1L14,7.5L6.7,6c1.4-2.2,4.6-2.9,8.4-2.3c2.5,0.4,3.7,2.1,4.6,4c0.7,1.4,1,3,1.6,4.9c4.3,0.8,8.6,1.6,13,2.4
		C34.4,16.1,34.1,18.4,33.8,19.2z M46,17.1c1.7-0.9,4.4,0.6,4.4,1.7c-0.3,3.2-5.5,3-4.9,2.2C45.9,20.2,45.8,17.1,46,17.1z
		 M38.3,15.5c0.1-0.4,1-0.9,1.6-0.9c0.6,0,1.4,0.4,1.7,0.9c0.2,0.5,0.1,1.5-0.3,1.8c-0.7,0.6-1.7,0.9-3,1.6
		C38.2,17.4,38.1,16.4,38.3,15.5z M34,81.4c-0.3,1.3-0.9,2.6-1.4,4.1c-1.7-1.5-2-3.8-1.3-8.1C34.4,78.7,34.6,79,34,81.4z M30.4,88.5
		c0.6,0.5,1.7,1,2.1,1.8c2.1,4.4,3.6,10.6,3.7,11.6c0.1,1.4-0.5,2.5-1.8,3c-2.6,1-5.3,1.9-8.3,2.9c-4.4-4.6-5.1-9.5-4.2-14.5
		C27.5,94.4,29.4,92.5,30.4,88.5z M27.2,76.7c0.2,2.5,0.4,4.6,0.4,6.7c0,2.1,0.8,4.8-2,5.8c-1.5,0.5-3.8-0.3-4.9-1.3
		c-1.3-1.2-2-2.7-2.4-6C21.3,80.2,24,78.6,27.2,76.7z M12.7,79.2c0.7,1,1.4,1.5,1.6,2.2c0.8,2.2,1.3,4.5,2.3,6.5
		c2.1,4.3,2.4,6.2,1.4,11.7c-4.1,0.7-4.1,0.7-8.1-0.3C9,92.6,9.7,86.1,12.7,79.2z M13.3,174c-2.1-3.6-2.1-4.5,0.1-9
		C14.3,167.9,13.8,170.7,13.3,174z M42,251.3c-0.1,0.9-2.5,5.8-3,0c-0.5-6.7-0.5-10.6-0.1-17.2c0.4-7,1-13.9,1.3-20.9
		c0.3-7.7,0.4-15.4,0.3-23.1c0-2.9-0.4-5.7-0.9-8.5c-0.3-1.5-0.9-3.1-1.8-4.5c-1.6-2.5-4.6-2.4-6.1,0.1c-0.4,0.6-3.5,13.1-4.6,18.8
		c-0.4,2.2,0.2,4.6,0.1,7c-0.3,5.6-0.7,11.1-1.2,16.7c-0.9,9-0.5,17.9,0.3,26.9c1.3,13.9-2.6,7.4-2.9,6.7c-2.2-5.9-4-20.7-4.8-25.3
		c-1.8-9.9-2.1-20-2.5-30c-0.2-5.6,0.1-11.1,0.2-16.7c0.1-3.9,0.1-7.9,0.3-11.8c0.4-6.6,1.8-23.1,2-24.7c0.4-3.1-0.5-5.6-2.5-7.9
		c-2.9-3.2-6.7-10.9-4.2-26.2c-1.5-0.8-2.7,0.2-3.2,4.2c-0.4,2.9-1.5,14.8,5.1,24.4c1.1,1.6,2.2,2.8,2,4.8
		c-0.5,4.6-0.9,9.2-1.5,13.8c-0.1,0.8-0.7,1.5-1.3,2.9c-0.8-1.6-1.5-2.4-1.6-3.3c-1.3-9-5.6-32.8-5.7-37.4c-0.1-5.1,0.4-9.5,2-14.3
		c0.2-0.5,0.5-0.9,0.8-1.5c3.5-1.4,7,0.2,10.6-0.4c1.1,1.7,1.9,3.2,2.9,4.7c2,2.8,3.6,3.5,6.9,2.4c2.7-0.9,5.4-2,8.1-3.1
		c1.8-0.7,2.6-2,2.3-3.8c-0.4-2.5-2.8-9.9-3.3-11.3c-0.8-2.4-0.9-4.7,0-7.3c2.6-7.7,3-15.8,3.6-23.9c0.7-9.3-0.3-29.4-1.3-35.8
		c-0.1-0.7,2-0.4,3.3-1.5c1.2,3.5,2.5,21.4,2.8,29.5c0.2,5-0.9,27.2-0.5,33.3c0.3,3.9,1.4,7.6,3.7,11.1c3.1,4.8,8,21.1,6.3,30.7
		c-1.4,7.9-2.2,8.3,0.5,30.3c0.3,2.1-0.1,12.1-3,30.9c-0.7,4.3-4.4,32.2-6,44.9C44.9,239.7,42.9,246.1,42,251.3z"/>
	<path class="st0" d="M33.8,19.2c-4.7-0.7-9.5-1.4-14.2-2.1c-2.9,3.5-6.5,4.9-10.5,5c-1.8,0.1-3.9-1.3-5.3-3.5l8.7,0.1L14,7.5L6.7,6
		c1.4-2.2,4.6-2.9,8.4-2.3c2.5,0.4,3.7,2.1,4.6,4c0.7,1.4,1,3,1.6,4.9c4.3,0.8,8.6,1.6,13,2.4C34.4,16.1,34.1,18.4,33.8,19.2z"/>
	<path class="st0" d="M46,17.1c1.7-0.9,4.4,0.6,4.4,1.7c-0.3,3.2-5.5,3-4.9,2.2C45.9,20.2,45.8,17.1,46,17.1z"/>
	<path class="st1" d="M38.3,15.5c0.1-0.4,1-0.9,1.6-0.9c0.6,0,1.4,0.4,1.7,0.9c0.2,0.5,0.1,1.5-0.3,1.8c-0.7,0.6-1.7,0.9-3,1.6
		C38.2,17.4,38.1,16.4,38.3,15.5z"/>
	<path class="st2" d="M34,81.4c-0.3,1.3-0.9,2.6-1.4,4.1c-1.7-1.5-2-3.8-1.3-8.1C34.4,78.7,34.6,79,34,81.4z"/>
	<path class="st3" d="M30.4,88.5c0.6,0.5,1.7,1,2.1,1.8c2.1,4.4,3.6,10.6,3.7,11.6c0.1,1.4-0.5,2.5-1.8,3c-2.6,1-5.3,1.9-8.3,2.9
		c-4.4-4.6-5.1-9.5-4.2-14.5C27.5,94.4,29.4,92.5,30.4,88.5z"/>
	<path class="st3" d="M27.2,76.7c0.2,2.5,0.4,4.6,0.4,6.7c0,2.1,0.8,4.8-2,5.8c-1.5,0.5-3.8-0.3-4.9-1.3c-1.3-1.2-2-2.7-2.4-6
		C21.3,80.2,24,78.6,27.2,76.7z"/>
	<path class="st2" d="M12.7,79.2c0.7,1,1.4,1.5,1.6,2.2c0.8,2.2,1.3,4.5,2.3,6.5c2.1,4.3,2.4,6.2,1.4,11.7c-4.1,0.7-4.1,0.7-8.1-0.3
		C9,92.6,9.7,86.1,12.7,79.2z"/>
	<path class="st3" d="M13.3,174c-2.1-3.6-2.1-4.5,0.1-9C14.3,167.9,13.8,170.7,13.3,174z"/>
	<path class="st4" d="M42,251.3c-0.1,0.9-2.5,5.8-3,0c-0.5-6.7-0.5-10.6-0.1-17.2c0.4-7,1-13.9,1.3-20.9c0.3-7.7,0.4-15.4,0.3-23.1
		c0-2.9-0.4-5.7-0.9-8.5c-0.3-1.5-0.9-3.1-1.8-4.5c-1.6-2.5-4.6-2.4-6.1,0.1c-0.4,0.6-3.5,13.1-4.6,18.8c-0.4,2.2,0.2,4.6,0.1,7
		c-0.3,5.6-0.7,11.1-1.2,16.7c-0.9,9-0.5,17.9,0.3,26.9c1.3,13.9-2.6,7.4-2.9,6.7c-2.2-5.9-4-20.7-4.8-25.3c-1.8-9.9-2.1-20-2.5-30
		c-0.2-5.6,0.1-11.1,0.2-16.7c0.1-3.9,0.1-7.9,0.3-11.8c0.4-6.6,1.8-23.1,2-24.7c0.4-3.1-0.5-5.6-2.5-7.9
		c-2.9-3.2-6.7-10.9-4.2-26.2c-1.5-0.8-2.7,0.2-3.2,4.2c-0.4,2.9-1.5,14.8,5.1,24.4c1.1,1.6,2.2,2.8,2,4.8
		c-0.5,4.6-0.9,9.2-1.5,13.8c-0.1,0.8-0.7,1.5-1.3,2.9c-0.8-1.6-1.5-2.4-1.6-3.3c-1.3-9-5.6-32.8-5.7-37.4c-0.1-5.1,0.4-9.5,2-14.3
		c0.2-0.5,0.5-0.9,0.8-1.5c3.5-1.4,7,0.2,10.6-0.4c1.1,1.7,1.9,3.2,2.9,4.7c2,2.8,3.6,3.5,6.9,2.4c2.7-0.9,5.4-2,8.1-3.1
		c1.8-0.7,2.6-2,2.3-3.8c-0.4-2.5-2.8-9.9-3.3-11.3c-0.8-2.4-0.9-4.7,0-7.3c2.6-7.7,3-15.8,3.6-23.9c0.7-9.3-0.3-29.4-1.3-35.8
		c-0.1-0.7,2-0.4,3.3-1.5c1.2,3.5,2.5,21.4,2.8,29.5c0.2,5-0.9,27.2-0.5,33.3c0.3,3.9,1.4,7.6,3.7,11.1c3.1,4.8,8,21.1,6.3,30.7
		c-1.4,7.9-2.2,8.3,0.5,30.3c0.3,2.1-0.1,12.1-3,30.9c-0.7,4.3-4.4,32.2-6,44.9C44.9,239.7,42.9,246.1,42,251.3z"/>
</g>
</svg>
