<?xml version="1.0" encoding="UTF-8"?>
<svg width="87px" height="71px" viewBox="0 0 87 71" version="1.1" xmlns="http://www.w3.org/2000/svg" xmlns:xlink="http://www.w3.org/1999/xlink">
    <!-- Generator: Sketch 59.1 (86144) - https://sketch.com -->
    <title>Fill 21 Copy</title>
    <desc>Created with Sketch.</desc>
    <g id="Page-1" stroke="none" stroke-width="1" fill="none" fill-rule="evenodd">
        <g id="The-Coalition---Who-are-we?" transform="translate(-1284.000000, -973.000000)" fill="#3F43AA">
            <path d="M1309.8328,1026.21438 C1303.22699,1031.22533 1294.29513,1032.26214 1284,1034.17941 C1285.90672,1036.13762 1286.72468,1037.75892 1287.83976,1037.99719 C1297.16273,1039.98519 1306.49134,1042.06067 1315.91774,1043.4344 C1325.0884,1044.77091 1334.21017,1043.82158 1342.65688,1039.69853 C1347.68128,1037.24703 1352.44055,1036.92128 1357.66427,1039.0824 C1361.78609,1040.78746 1366.19372,1041.81124 1370.47349,1043.13658 C1370.64837,1042.65819 1370.82512,1042.17981 1371,1041.70142 C1366.98537,1040.19553 1362.98766,1038.6431 1358.95046,1037.19677 C1355.46234,1035.94962 1352.4838,1034.42884 1349.85314,1031.41705 C1347.8712,1029.14612 1343.97316,1028.08697 1340.73136,1027.41872 C1334.69155,1026.17342 1332.48773,1023.7908 1333.54263,1017.80446 C1333.90743,1015.73084 1334.6201,1013.46549 1335.89688,1011.84977 C1339.14431,1007.74533 1338.19284,1004.26075 1335.82919,1000.06138 C1329.14064,988.18177 1319.74621,979.397713 1307.2529,973.826472 C1306.51391,973.498862 1305.63389,973.485832 1303.15365,973 C1303.96034,975.712094 1304.24616,977.283136 1304.88173,978.70154 C1306.81853,983.023766 1308.4225,987.587976 1311.00804,991.504411 C1315.85569,998.849589 1314.31377,1006.15381 1312.23217,1013.74098 C1311.17351,1017.59785 1310.6959,1021.61108 1309.8328,1026.21438" id="Fill-21-Copy"></path>
        </g>
    </g>
</svg>