<?xml version="1.0" encoding="utf-8"?>
<!-- Generator: Adobe Illustrator 24.1.2, SVG Export Plug-In . SVG Version: 6.00 Build 0)  -->
<svg version="1.1" xmlns="http://www.w3.org/2000/svg" xmlns:xlink="http://www.w3.org/1999/xlink" x="0px" y="0px"
	 viewBox="0 0 80.7 260" style="enable-background:new 0 0 80.7 260;" xml:space="preserve">
<style type="text/css">
	.st0{fill:#603813;}
	.st1{fill:#A57C52;}
	.st2{fill:#7BB3A0;}
	.st3{fill:#3F43A9;}
	.st4{fill:#D74D36;}
</style>
<g id="Layer_2">
	<g>
		<g>
			<path class="st0" d="M5.3,48.9c-0.3-1.3-0.5-2.5-0.6-3.8c-0.2-0.7-1.4-6.9-1.6-9c-0.1-0.9,0.2-1.6,1.8-1.9c0.6,0,1.1,0.4,1.2,1.2
				c0.2,2.2,1,4.3,1.3,6.4c0.3,2.2,0.4,4.3,0.9,6.4C8.8,50.2,5.8,50.8,5.3,48.9z"/>
			<path class="st0" d="M32.3,75.6c0.7-2.1,2.4-3.3,4.5-3.7c1.7-0.4,3.9,0.9,5,2.8c2.4,3.9,2.3,8.4-0.1,11.5
				c-2.2,2.8-4.9,2.6-7.5,0.3C30.7,83,31.9,76.9,32.3,75.6z"/>
			<path d="M80,40.9c-0.7-1.7-4.4-6.6-7.7-10.8c0.7-1.5,1.1-2.8,1.1-3.3c0-2.7-1.6-4.1-4.3-3.8c-0.7,0.1-1.4,0.3-2,0.5
				c-3.2-4-5.1-6.3-6.3-7.6c-0.5-0.5-0.9-0.9-1.1-1.2c0.6-1.6,0.8-3.4,0.2-5.1c-1.1-3.4-2.6-5.5-5.5-7.2c-0.8-0.5-0.5-0.8-0.9-1
				c-5.6-2.8-14.3-0.9-14.4-0.1c-0.1,0.8,3.5,3.1,5.3,7.7c0.3,0.7,1,1.5,1.2,2.4c1.4,5.9,5.7,7.4,8.9,7.4c0.1,0,0.2,0,0.3,0
				c0.6,1.2,2.1,3.7,4.3,6.8c0.7,1,1.4,2.1,2.1,3.2c-0.9,1.7-1.8,3.9-2.2,5.9c-1.4,7.3-6.3,25.2-6.8,26.3c-1.5-1.5-5.1-7.7-16.7-6.9
				c-7,0.4-12.1,4.5-15.4,10.6c-0.4,0.7-1,2.2-1.5,3c-0.6-0.6-6.1-12.8-7-19.9c-0.3-2.6-1.1-7-1.6-9.6c-0.3-1.5-0.5-2.9-1-4.3
				C8.2,31.5,6,30.4,3.2,31c-2,0.4-3.5,2.2-3.2,4.6c0.5,4,1,8.1,1.9,12.1c1.6,7.4,3.6,14.8,5.3,22.2c0.8,3.2,1.2,6.6,2.3,9.8
				c2.1,6.5,4.7,12.9,6.8,19.4c2.3,7.1,4.2,12.3,4.6,19.7c0.3,6.7,0.2,17.3,0.6,24c0.3,4.4,2,7.2,2,11.6c0,4.4-1.2,10.3-1.9,14.7
				c0,0.2-2.2,23.2-2.4,25.2c-1.5,13.1-1.9,23.9-1.9,37.1c0,5.3,1.2,25.9,2.6,27.5c2.1,2.3,6.6,1.2,7.4-1.8c0.2-0.9,0.3-1.8,0.3-2.8
				c0.8-8.5,1.2-15.2,1.9-23.7c0.6-6.8,1-14,1-20.8c0.1-9.2,0.9-14.1,1.6-21.3c0.4-3.5,2.4-16.4,5.4-12.1c1,4.1,1.8,17.5,1.5,21.8
				c-0.9,18.3-2.7,26.3-3.6,32.4c-1.1,7.7-2.1,15.4-3,23.2c-0.2,1.2,0,2.6,0.5,3.8c0.8,2.2,3.4,2.5,4.9,0.7c0.4-0.5,0.8-1.1,1.3-1.8
				c0.3-0.8,0.6-1.6,1-2.4c0,0,0,0,0,0c0.8-2.2,2.4-8.7,2.6-9.7c3.5-14,6.1-27.3,8.5-41.6c1.5-9.2,2-11.4,2.5-20.6
				c0.1-1.3,0.1-24.7,0.4-27.1c1.7-14.7,3.2-35.2,4.8-49.9c0.8-7.4,1.7-14.7,2.7-22.1c0.5-3.3,1.6-6.5,1.8-9.8
				c0.4-6.7,2-13.2,3.1-19.7c0.8-4.8,2-9.4,1.6-14.3c0,0,0-0.1,0-0.1c1.6,2,3.1,3.8,4.5,5c2.1,2,3.9,3,5.3,3c0.5,0,1-0.1,1.4-0.4
				C80.9,45.4,81,43.4,80,40.9z M55.5,15.3c-1.3,0.7-6,1.3-7.5-6c-0.1-0.6,2.1,0,2.3-1c0.1-1,1.8-1.1,1.7-1.9
				c-0.1-0.8,0-1.8,0.2-1.7c2.4,0.9,3.7,3.6,4.5,6.1C57.2,12.5,56.1,14.7,55.5,15.3z M57.5,18.1c0.2-0.1,0.3-0.3,0.5-0.5l0.6-0.3
				c0.8,0.9,2.4,2.8,5,6c-0.5,0.8-1.1,1.5-1.5,1.9c-0.2-0.3-0.5-0.6-0.7-1C59.7,21.6,58.3,19.4,57.5,18.1z M32.3,75.7
				c0.7-2.1,2.4-3.3,4.5-3.7c1.7-0.4,3.9,0.9,5,2.8c2.4,3.9,2.3,8.4-0.1,11.5c-2.2,2.8-4.9,2.6-7.5,0.3C30.7,83.1,31.9,77,32.3,75.7
				z M5.3,48.9c-0.3-1.3-0.5-2.5-0.6-3.8c-0.2-0.7-1.4-6.9-1.6-9c-0.1-0.9,0.1-1.6,1.8-1.9c0.6,0,1.1,0.4,1.2,1.2
				c0.2,2.2,1,4.3,1.3,6.4c0.3,2.2,0.4,4.3,0.9,6.4C8.8,50.2,5.8,50.8,5.3,48.9z M50.6,176c0,13.8-1.8,27.4-4.7,40.8
				c-2.3,10.7-4.4,20.6-7.1,31.2c-0.3,1-1.8,7-3,5.6c-0.5-2.7,2-14.9,2.9-21.3c1-6.8,1.8-13.6,2.5-20.4c0.6-5.9,1.1-11.8,1.2-17.7
				c0.1-5.7-0.4-11.5-0.7-17.2c0-0.5-0.2-1.1-0.3-1.6c-0.4-1.5-0.9-2.9-2.5-3.4c-2-0.6-3.9-0.1-5,1.5c-1.1,1.6-2.1,3.6-2.5,5.5
				c-1.7,7.8-2.7,15.7-3,23.7c-0.4,10.6-0.7,20.3-1.4,30.9c-0.4,6.9-1.4,22.3-3.4,21.9c-1.2-0.4-1.4-2.6-1.5-3.7
				c-1-6.2-1.4-19.6-1.4-20.9c-0.6-10.6,0.2-21.1,1.1-31.7c0.8-9.6,2-19.2,3-28.7c0.5-4.4,1.1-8.8,1.7-13.3c3-0.5,5.7,0.2,8.4,0.4
				c4.4,0.3,8.8,0.9,13.2-0.5c2.2-0.7,3.6,0.4,3.5,2.9C51.2,165.3,50.6,170.7,50.6,176z M61.2,66.4c-1.6,9.1-3.2,18.2-4.5,27.4
				c-0.8,6-1,12.2-1.7,18.3c-1,9-1.6,17.7-2.6,26.7c-0.4,3.1-1.1,12.7-1.6,14.1c-8.1,2.1-16.5,1.9-23.9,0.3
				c-2.9-6.3-2.5-13.3-2.8-19.8c-0.5-10,0-20-2.9-29.7c-2.1-7.1-4.7-14-7-21.1c-1.1-3.3-2.3-6.7-3.1-10.1C9.8,67,6.8,54.1,6.9,53.3
				c0.4-0.1,2.1-0.4,2.4-0.5c0.2,0.7,3.5,10.8,5.6,14.9c2.5,4.7,3.7,10.1,5.5,15.1c1.6,4.3,4.7,7.1,8.8,8.7c1,0.4,2.2,0.8,3.2,0.8
				c4-0.2,8-0.3,12-0.9c6-0.8,11.5-11.8,11.4-17.5c0-1.1,0.4-5.7-0.5-9c-0.2-0.9,1.3-5.7,2-7.9c1-3.6,1.9-7.1,2.9-11
				c1.4,0.1,3.3,0.3,4.4,0.4C64.8,47.3,62.2,60.3,61.2,66.4z M65,41.6c-1.2,0-2.3-0.2-3.9-0.3c0.2-4.2,0.8-6.1,1.8-8.5
				c0.1,0.1,0.2,0.3,0.3,0.4c0.8,0.7,1.7,1.1,2.9,1.3C65.4,36.6,65.3,39.1,65,41.6z M66,30.4c-0.3-0.3-1.9-1.6,0.9-3.5
				c1.1-0.8,2.2-0.2,2.5,0.8c0.2,0.7-0.1,1.2-0.4,1.5C67.5,31.1,66.2,30.6,66,30.4z M78,44.1c-0.3,0-1.3-0.3-3.5-2.3
				c-1.5-1.4-3.4-3.6-5.3-6.1c0.3-0.6,0.5-1.2,0.6-1.3c0.4-0.6,0.8-1.2,1.2-1.8c3.3,4.3,6.1,8.1,6.6,9.2
				C78.1,43.1,78.1,43.8,78,44.1z"/>
			<path class="st1" d="M55.5,15.3c-1.3,0.7-6,1.3-7.5-6c-0.1-0.6,2.1,0,2.3-1c0.1-1,1.8-1.1,1.7-1.9c-0.1-0.8,0-1.8,0.2-1.7
				c2.4,0.9,3.7,3.6,4.5,6.1C57.2,12.5,56.1,14.7,55.5,15.3z"/>
			<path class="st2" d="M57.5,18.1c0.2-0.1,0.3-0.3,0.5-0.5l0.6-0.3c0.8,0.9,2.4,2.8,5,6c-0.5,0.8-1.1,1.5-1.5,1.9
				c-0.2-0.3-0.5-0.6-0.7-1C59.7,21.6,58.3,19.4,57.5,18.1z"/>
			<path class="st0" d="M65,41.6c-1.2,0-2.3-0.2-3.9-0.3c0.2-4.2,0.8-6.1,1.8-8.5c0.1,0.1,0.2,0.3,0.3,0.4c0.8,0.7,1.7,1.1,2.9,1.3
				C65.4,36.6,65.3,39.1,65,41.6z"/>
			<path class="st0" d="M66,30.4c-0.3-0.3-1.9-1.6,0.9-3.5c1.1-0.8,2.2-0.2,2.5,0.8c0.2,0.7-0.1,1.2-0.4,1.5
				C67.5,31.1,66.2,30.6,66,30.4z"/>
			<path class="st3" d="M78,44.1c-0.3,0-1.3-0.3-3.5-2.3c-1.5-1.4-3.4-3.6-5.3-6.1c0.3-0.6,0.5-1.2,0.6-1.3c0.4-0.6,0.8-1.2,1.2-1.8
				c3.3,4.3,6.1,8.1,6.6,9.2C78.1,43.1,78.1,43.8,78,44.1z"/>
		</g>
		<path class="st2" d="M50.6,176c0,13.8-1.8,27.4-4.7,40.8c-2.3,10.7-4.4,20.6-7.1,31.2c-0.3,1-1.8,7-3,5.6
			c-0.5-2.7,2-14.9,2.9-21.3c1-6.8,1.8-13.6,2.5-20.4c0.6-5.9,1.1-11.8,1.2-17.7c0.1-5.7-0.4-11.5-0.7-17.2c0-0.5-0.2-1.1-0.3-1.6
			c-0.4-1.5-0.9-2.9-2.5-3.4c-2-0.6-3.9-0.1-5,1.5c-1.1,1.6-2.1,3.6-2.5,5.5c-1.7,7.8-2.7,15.7-3,23.7c-0.4,10.6-0.7,20.3-1.4,30.9
			c-0.4,6.9-1.4,22.3-3.4,21.9c-1.2-0.4-1.4-2.6-1.5-3.7c-1-6.2-1.4-19.6-1.4-20.9c-0.6-10.6,0.2-21.1,1.1-31.7
			c0.8-9.6,2-19.2,3-28.7c0.5-4.4,1.1-8.8,1.7-13.3c3-0.5,5.7,0.2,8.4,0.4c4.4,0.3,8.8,0.9,13.2-0.5c2.2-0.7,3.6,0.4,3.5,2.9
			C51.2,165.2,50.6,170.6,50.6,176z"/>
		<path class="st4" d="M61.2,66.3c-1.6,9.1-3.2,18.2-4.5,27.4c-0.8,6-1,12.2-1.7,18.3c-1,9-1.6,17.7-2.6,26.7
			c-0.4,3.1-1.1,12.7-1.6,14.1c-8.1,2.1-16.5,1.9-23.9,0.3c-2.9-6.3-2.5-13.3-2.8-19.8c-0.5-10,0-20-2.9-29.7
			c-2.1-7.1-4.7-14-7-21.1c-1.1-3.3-2.3-6.7-3.1-10.1C9.8,67,6.8,54.1,6.9,53.2c0.4-0.1,2.1-0.4,2.4-0.5c0.2,0.7,3.5,10.8,5.6,14.9
			c2.5,4.7,3.7,10.1,5.5,15.1c1.6,4.3,4.7,7.1,8.8,8.7c1,0.4,2.2,0.8,3.2,0.8c4-0.2,8-0.3,12-0.9c6-0.8,11.5-11.8,11.4-17.5
			c0-1.1,0.4-5.7-0.5-9c-0.2-0.9,1.3-5.7,2-7.9c1-3.6,1.9-7.1,2.9-11c1.4,0.1,3.3,0.3,4.4,0.4C64.8,47.2,62.2,60.3,61.2,66.3z"/>
	</g>
</g>
<g id="Layer_1">
</g>
</svg>
