<?xml version="1.0" encoding="UTF-8"?>
<svg width="23px" height="17px" viewBox="0 0 23 17" version="1.1" xmlns="http://www.w3.org/2000/svg" xmlns:xlink="http://www.w3.org/1999/xlink">
    <!-- Generator: Sketch 59.1 (86144) - https://sketch.com -->
    <title>Arrow left</title>
    <desc>Created with Sketch.</desc>
    <g id="Page-1" stroke="none" stroke-width="1" fill="none" fill-rule="evenodd">
        <g id="Style-guide" transform="translate(-19.000000, -20498.000000)" fill="#ffffff">
            <path d="M33.2861679,20503.0437 C33.1119548,20503.1607 32.8278491,20503.0825 32.3680882,20503.0698 C30.9123711,20503.0305 29.4543464,20503.0331 28.0026673,20503.1751 C26.4532097,20503.3266 24.9028867,20503.3519 23.3467951,20503.4318 C22.3323792,20503.4835 20.5689049,20503.2389 19.7056274,20503.7759 C18.9182075,20504.2657 18.9833932,20505.7246 19.0180051,20506.5054 C19.069346,20507.6639 19.2421169,20508.8235 19.9086836,20509.8184 C20.4316112,20510.5989 21.4869845,20510.5135 22.3695869,20510.5966 C24.0355712,20510.7541 25.7828933,20510.7061 27.4529156,20510.6107 C28.882097,20510.5291 30.2965684,20510.2223 31.7361334,20510.2232 C32.5033629,20510.2235 33.1436824,20510.2933 33.8869721,20510.5086 C34.0378221,20510.5526 34.1442536,20513.843 34.2524156,20514.2055 C34.9838796,20516.657 37.2645128,20512.7167 37.8736816,20512.023 C38.3020034,20511.5349 38.5445748,20510.9545 38.9587634,20510.4673 C39.4591932,20509.8777 39.9948118,20509.3154 40.5142781,20508.7427 C41.1306577,20508.0629 41.9036559,20507.2991 41.9913393,20506.3372 C42.0891178,20505.2629 41.3406363,20504.6754 40.6717621,20503.9722 C40.0519214,20503.3205 39.5428386,20502.5518 38.8872322,20501.9022 C37.6726444,20500.6988 36.3265314,20499.6401 35.0447388,20498.5106 C34.533637,20498.0604 33.7917895,20497.6853 33.3781777,20498.3976 C32.996582,20499.0551 33.3963489,20499.7617 33.472495,20500.4335 C33.5454684,20501.0803 33.5858489,20501.8728 33.5007614,20502.5231 C33.4621115,20502.8183 33.3960605,20502.9698 33.2861679,20503.0437" id="Arrow-left" transform="translate(30.500000, 20506.500000) scale(-1, 1) translate(-30.500000, -20506.500000) "></path>
        </g>
    </g>
</svg>