<?xml version="1.0" encoding="utf-8"?>
<!-- Generator: Adobe Illustrator 23.0.1, SVG Export Plug-In . SVG Version: 6.00 Build 0)  -->
<svg version="1.1" id="Layer_1" xmlns="http://www.w3.org/2000/svg" xmlns:xlink="http://www.w3.org/1999/xlink" x="0px" y="0px"
	 viewBox="0 0 116.7 37.9" style="enable-background:new 0 0 116.7 37.9;" xml:space="preserve">
<style type="text/css">
	.st0{clip-path:url(#SVGID_2_);}
	.st1{clip-path:url(#SVGID_4_);fill:#3F43AA;}
	.st2{clip-path:url(#SVGID_6_);}
	.st3{clip-path:url(#SVGID_8_);fill:#FFFFFF;}
</style>
<g>
	<defs>
		<path id="SVGID_1_" d="M115.1,11.7c-1.3-3.5-3.4-6.3-6.1-7.9c-1.3-0.8-2.7-1.3-4.1-1.6c-0.8-0.1-1.4-0.1-2.1-0.2l-2-0.2l-7.9-0.5
			C87.7,1.1,82.3,0.9,77,0.8c-2.6-0.2-5.3-0.2-7.9-0.2c-2.6-0.1-5.3-0.1-7.9-0.1c-2.7,0-5.3,0-7.9,0.1l-4,0.1l-4-0.1
			c-5.3-0.2-10.6-0.1-15.9,0.1c-5.3,0.2-10.6,0.3-16,1.2h0.2c-2.9,0-5.7,1.3-8.1,3.6c-2.4,2.4-4,5.8-4.7,9.7
			C0.1,18.9,0.4,23,1.8,26.5c1.3,3.5,3.5,6.3,6.1,7.9c1.3,0.8,2.7,1.3,4.2,1.6c0.7,0.2,1.4,0.1,2,0.2l2.1,0.1l7.9,0.5l7.9,0.5
			l7.9,0.4c5.3,0.2,10.6,0.1,15.9,0.1h8l7.9,0.1h8c2.6-0.1,5.3-0.3,7.9-0.5c5.3-0.5,10.6-1,15.8-1.5c2.8,0,5.6-1.2,7.8-3.5
			c2.4-2.2,4-5.6,4.7-9.3C116.7,19.2,116.4,15.2,115.1,11.7z"/>
	</defs>
	<clipPath id="SVGID_2_">
		<use xlink:href="#SVGID_1_"  style="overflow:visible;"/>
	</clipPath>
	<g class="st0">
		<defs>
			<rect id="SVGID_3_" x="-49.6" y="-1816.3" width="375" height="2430"/>
		</defs>
		<clipPath id="SVGID_4_">
			<use xlink:href="#SVGID_3_"  style="overflow:visible;"/>
		</clipPath>
		<rect x="-4.6" y="-4.6" class="st1" width="126" height="47.2"/>
	</g>
</g>
<g>
	<defs>
		<path id="SVGID_5_" d="M114.4,22.4c-0.6,3.3-2,6.1-4,8.1c-2,2-4.4,3.1-6.9,3.1c-5.3,0.4-10.6,0.5-15.9,0.6l-7.9,0.3L71.7,35
			c-2.6,0.1-5.3,0.2-7.9,0.2c-2.6,0-5.3-0.1-7.9-0.2c-5.3-0.2-10.6-0.6-15.9-0.9L32,34l-7.9-0.2l-7.9-0.3l-2-0.1
			c-0.7-0.1-1.3-0.1-1.9-0.2c-1.2-0.2-2.4-0.5-3.5-1.2c-2.2-1.4-4-3.7-5.1-6.7c-1.1-2.9-1.4-6.3-0.8-9.5c0.6-3.1,2-5.9,3.9-7.8
			C8.8,6,11.1,5,13.5,5h0.2c5.1-0.9,10.4-1.5,15.7-1.9s10.6-0.5,15.9-0.7h3.9c1.3,0.1,2.6,0.2,3.9,0.2l7.9,0.5
			c2.6,0.1,5.3,0.3,7.9,0.4c2.6,0.1,5.3,0.2,7.9,0.3l15.9,0.5l7.9,0.3l2,0.1c0.7,0,1.3,0,1.9,0.2c1.2,0.2,2.4,0.5,3.5,1.2
			c2.2,1.3,4.1,3.6,5.3,6.5C114.6,15.7,114.9,19.1,114.4,22.4z"/>
	</defs>
	<clipPath id="SVGID_6_">
		<use xlink:href="#SVGID_5_"  style="overflow:visible;"/>
	</clipPath>
	<g class="st2">
		<defs>
			<rect id="SVGID_7_" x="-49.6" y="-1816.3" width="375" height="2430"/>
		</defs>
		<clipPath id="SVGID_8_">
			<use xlink:href="#SVGID_7_"  style="overflow:visible;"/>
		</clipPath>
		<rect x="-2.5" y="-2.5" class="st3" width="122.1" height="42.8"/>
	</g>
</g>
</svg>
