<?xml version="1.0" encoding="utf-8"?>
<!-- Generator: Adobe Illustrator 24.3.0, SVG Export Plug-In . SVG Version: 6.00 Build 0)  -->
<svg version="1.1" id="Layer_1" xmlns="http://www.w3.org/2000/svg" xmlns:xlink="http://www.w3.org/1999/xlink" x="0px" y="0px"
	 viewBox="0 0 211.94 47.03" style="enable-background:new 0 0 211.94 47.03;" xml:space="preserve" width="212" height="47">
<style type="text/css">
	.st0{clip-path:url(#SVGID_2_);}
	.st1{clip-path:url(#SVGID_4_);fill:#292C88;}
</style>
<g>
	<defs>
		<path id="SVGID_1_" d="M209.57,14.12c-2.4-4.41-6.3-7.94-11.1-10c-2.4-1.07-4.9-1.66-7.5-1.96c-1.3-0.19-2.6-0.19-3.8-0.19
			l-3.6-0.2l-14.5-0.58c-9.7-0.4-19.3-0.69-29-0.89c-4.8-0.09-9.7-0.19-14.5-0.29c-4.9,0-9.7,0-14.5,0c-4.8,0-9.7,0-14.5,0.1
			l-7.3,0.1l-7.3-0.1c-9.7-0.2-19.4-0.1-29.1,0.1c-9.7,0.19-19.3,0.49-29.1,1.56c-5.3,0-10.4,1.67-14.7,4.61
			c-4.2,2.94-7.3,7.34-8.5,12.14c-1.2,4.9-0.5,10,2,14.5c2.4,4.41,6.4,7.84,11.2,9.9c2.4,0.98,4.9,1.66,7.5,1.95
			c1.3,0.2,2.6,0.2,3.7,0.2l3.6,0.2l14.6,0.58l14.5,0.59l14.5,0.39c9.7,0.2,19.4,0.2,29.1,0.1h14.5l14.5,0.1c4.8,0,9.7,0,14.5-0.1
			c4.8-0.1,9.7-0.29,14.5-0.59c9.7-0.58,19.4-1.27,29-1.86c5.2,0,10.2-1.56,14.4-4.41c4.2-2.93,7.2-7.05,8.6-11.85
			C212.57,23.52,211.97,18.52,209.57,14.12z"/>
	</defs>
	<clipPath id="SVGID_2_">
		<use xlink:href="#SVGID_1_"  style="overflow:visible;"/>
	</clipPath>
	<g class="st0">
		<defs>
			<rect id="SVGID_3_" x="-60.03" y="-2029.97" width="1440" height="13555"/>
		</defs>
		<clipPath id="SVGID_4_">
			<use xlink:href="#SVGID_3_"  style="overflow:visible;"/>
		</clipPath>
		<rect x="-5" y="-5" class="st1" width="221.94" height="57.03"/>
	</g>
</g>
</svg>
