<?xml version="1.0" encoding="utf-8"?>
<!-- Generator: Adobe Illustrator 23.0.1, SVG Export Plug-In . SVG Version: 6.00 Build 0)  -->
<svg version="1.1" id="Layer_1" xmlns="http://www.w3.org/2000/svg" xmlns:xlink="http://www.w3.org/1999/xlink" x="0px" y="0px"
	 viewBox="0 0 111.8 32.8" style="enable-background:new 0 0 111.8 32.8;" xml:space="preserve">
<style type="text/css">
	.st0{clip-path:url(#SVGID_2_);}
	.st1{clip-path:url(#SVGID_4_);fill:#3F43AA;}
</style>
<g>
	<defs>
		<path id="SVGID_1_" d="M111.8,19.9c-0.6,3.3-2,6.1-4,8.1c-2,2-4.4,3.1-6.9,3.1c-5.3,0.4-10.6,0.5-15.9,0.6l-7.9,0.3l-7.9,0.5
			c-2.6,0.1-5.3,0.2-7.9,0.2c-2.6,0-5.3-0.1-7.9-0.2C48,32.4,42.7,32,37.4,31.8l-7.9-0.3l-7.9-0.2l-7.9-0.3l-2-0.1
			c-0.7-0.1-1.3-0.1-1.9-0.2c-1.2-0.2-2.4-0.5-3.5-1.2c-2.2-1.4-4-3.7-5.1-6.7c-1.1-2.9-1.4-6.3-0.8-9.5c0.6-3.1,2-5.9,3.9-7.8
			c2-1.9,4.3-2.9,6.7-2.9h0.2c5.1-0.9,10.4-1.5,15.7-1.9S37.4,0.2,42.8,0h3.9c1.3,0.1,2.6,0.2,3.9,0.2l7.9,0.5
			c2.6,0.1,5.3,0.3,7.9,0.4c2.6,0.1,5.3,0.2,7.9,0.3L90.3,2l7.9,0.3l2,0.1c0.7,0,1.3,0,1.9,0.2c1.2,0.2,2.4,0.5,3.5,1.2
			c2.2,1.3,4.1,3.6,5.3,6.5C112,13.3,112.4,16.7,111.8,19.9z"/>
	</defs>
	<clipPath id="SVGID_2_">
		<use xlink:href="#SVGID_1_"  style="overflow:visible;"/>
	</clipPath>
	<g class="st0">
		<defs>
			<rect id="SVGID_3_" x="-211.1" y="-1818.8" width="375" height="2430"/>
		</defs>
		<clipPath id="SVGID_4_">
			<use xlink:href="#SVGID_3_"  style="overflow:visible;"/>
		</clipPath>
		<rect x="-5" y="-5" class="st1" width="122.1" height="42.8"/>
	</g>
</g>
</svg>
