<?xml version="1.0" encoding="utf-8"?>
<!-- Generator: Adobe Illustrator 24.3.0, SVG Export Plug-In . SVG Version: 6.00 Build 0)  -->
<svg version="1.1" id="Layer_1" xmlns="http://www.w3.org/2000/svg" xmlns:xlink="http://www.w3.org/1999/xlink" x="0px" y="0px"
	 viewBox="0 0 211.94 47.03" style="enable-background:new 0 0 211.94 47.03;" xml:space="preserve" width="212" height="47">
<style type="text/css">
	.st0{clip-path:url(#SVGID_2_);}
	.st1{clip-path:url(#SVGID_4_);fill:#45499E;}
	.st2{clip-path:url(#SVGID_6_);}
	.st3{clip-path:url(#SVGID_8_);fill:#FFFFFF;}
</style>
<g>
	<defs>
		<path id="SVGID_1_" d="M209.57,14.21c-2.4-4.4-6.3-7.93-11.1-9.99c-2.4-0.98-4.9-1.66-7.5-1.96c-1.4-0.1-2.6-0.1-3.8-0.19
			l-3.6-0.2l-14.5-0.59c-9.6-0.39-19.3-0.68-29-0.88c-4.8-0.19-9.7-0.19-14.5-0.29c-4.8-0.1-9.6-0.1-14.5-0.1c-4.9,0-9.7,0-14.5,0.1
			l-7.3,0.1l-7.3-0.1c-9.7-0.2-19.4-0.1-29.1,0.1c-9.7,0.19-19.4,0.39-29.2,1.46h0.3c-5.3,0-10.5,1.67-14.8,4.61
			c-4.3,3.04-7.3,7.35-8.6,12.24c-1.2,4.8-0.5,10,2,14.4c2.4,4.41,6.4,7.94,11.2,10c2.4,0.98,5,1.66,7.6,1.95
			c1.3,0.2,2.6,0.1,3.7,0.2l3.8,0.1l14.5,0.59l14.4,0.58l14.5,0.49c9.6,0.2,19.3,0.1,29,0.1h14.6l14.5,0.1h14.6
			c4.8-0.1,9.7-0.39,14.5-0.59c9.6-0.59,19.3-1.27,28.9-1.86c5.2,0,10.2-1.57,14.3-4.41c4.3-2.84,7.3-7.05,8.6-11.75
			C212.57,23.72,211.97,18.62,209.57,14.21z"/>
	</defs>
	<clipPath id="SVGID_2_">
		<use xlink:href="#SVGID_1_"  style="overflow:visible;"/>
	</clipPath>
	<g class="st0">
		<defs>
			<rect id="SVGID_3_" x="-60.03" y="-2305.97" width="1440" height="13555"/>
		</defs>
		<clipPath id="SVGID_4_">
			<use xlink:href="#SVGID_3_"  style="overflow:visible;"/>
		</clipPath>
		<rect x="-5" y="-5" class="st1" width="221.94" height="57.03"/>
	</g>
</g>
<g>
	<defs>
		<path id="SVGID_5_" d="M208.27,27.73c-1.1,4.12-3.7,7.74-7.3,10.29c-3.6,2.54-8.1,3.92-12.7,3.92c-9.7,0.49-19.4,0.58-29,0.78
			l-14.5,0.39l-14.5,0.59c-4.8,0.1-9.7,0.29-14.5,0.29s-9.7-0.09-14.5-0.19c-9.7-0.3-19.3-0.79-29-1.08l-14.5-0.39l-14.5-0.3
			l-14.5-0.39l-3.6-0.1c-1.3-0.09-2.4-0.09-3.5-0.19c-2.2-0.2-4.4-0.69-6.4-1.57c-4-1.76-7.4-4.7-9.4-8.42
			c-2-3.73-2.5-7.94-1.4-11.95c1.1-3.92,3.6-7.45,7.2-9.9c3.6-2.45,7.9-3.72,12.3-3.72h0.3c9.4-1.08,19-1.86,28.7-2.35
			s19.3-0.69,29.1-0.88h7.2c2.4,0.09,4.8,0.19,7.2,0.29l14.5,0.69c4.8,0.09,9.7,0.39,14.5,0.49c4.8,0.09,9.7,0.29,14.5,0.39l29,0.68
			l14.5,0.4l3.6,0.09c1.3,0,2.4,0,3.5,0.2c2.2,0.2,4.4,0.68,6.4,1.57c4.1,1.66,7.5,4.5,9.6,8.23
			C208.67,19.31,209.27,23.62,208.27,27.73z"/>
	</defs>
	<clipPath id="SVGID_6_">
		<use xlink:href="#SVGID_5_"  style="overflow:visible;"/>
	</clipPath>
	<g class="st2">
		<defs>
			<rect id="SVGID_7_" x="-60.03" y="-2305.97" width="1440" height="13555"/>
		</defs>
		<clipPath id="SVGID_8_">
			<use xlink:href="#SVGID_7_"  style="overflow:visible;"/>
		</clipPath>
		<rect x="-1.1" y="-2.44" class="st3" width="214.84" height="51.43"/>
	</g>
</g>
</svg>
