<?xml version="1.0" encoding="utf-8"?>
<!-- Generator: Adobe Illustrator 24.3.0, SVG Export Plug-In . SVG Version: 6.00 Build 0)  -->
<svg version="1.1" id="Layer_1" xmlns="http://www.w3.org/2000/svg" xmlns:xlink="http://www.w3.org/1999/xlink" x="0px" y="0px"
	 viewBox="0 0 129.96 47.03" style="enable-background:new 0 0 129.96 47.03;" xml:space="preserve" width="130" height="47">
<style type="text/css">
	.st0{clip-path:url(#SVGID_2_);}
	.st1{clip-path:url(#SVGID_4_);fill:#010101;}
</style>
<g>
	<defs>
		<path id="SVGID_1_" d="M128.51,14.21c-1.47-4.4-3.86-7.93-6.81-9.99c-1.47-0.98-3.01-1.66-4.6-1.96c-0.86-0.1-1.6-0.1-2.33-0.19
			l-2.21-0.2l-8.89-0.59C97.79,0.89,91.84,0.6,85.89,0.4C82.95,0.21,79.94,0.21,77,0.11c-2.94-0.1-5.89-0.1-8.89-0.1
			c-3,0-5.95,0-8.89,0.1l-4.48,0.1l-4.48-0.1c-5.95-0.2-11.9-0.1-17.84,0.1C26.47,0.4,20.52,0.6,14.51,1.67h0.18
			c-3.25,0-6.44,1.67-9.08,4.61c-2.64,3.04-4.48,7.35-5.27,12.24c-0.74,4.8-0.31,10,1.23,14.4c1.47,4.41,3.92,7.94,6.87,10
			c1.47,0.98,3.07,1.66,4.66,1.95c0.8,0.2,1.59,0.1,2.27,0.2l2.33,0.1l8.89,0.59l8.83,0.58l8.89,0.49c5.89,0.2,11.83,0.1,17.78,0.1
			h8.95l8.89,0.1h8.95c2.94-0.1,5.95-0.39,8.89-0.59c5.89-0.59,11.83-1.27,17.72-1.86c3.19,0,6.26-1.57,8.77-4.41
			c2.64-2.84,4.48-7.05,5.27-11.75C130.35,23.72,129.98,18.62,128.51,14.21z"/>
	</defs>
	<clipPath id="SVGID_2_">
		<use xlink:href="#SVGID_1_"  style="overflow:visible;"/>
	</clipPath>
	<g class="st0">
		<defs>
			<rect id="SVGID_3_" x="-60.02" y="-3060.97" width="1440" height="13555"/>
		</defs>
		<clipPath id="SVGID_4_">
			<use xlink:href="#SVGID_3_"  style="overflow:visible;"/>
		</clipPath>
		<rect x="-5" y="-5" class="st1" width="139.96" height="57.03"/>
	</g>
</g>
</svg>
