<?xml version="1.0" encoding="utf-8"?>
<!-- Generator: Adobe Illustrator 24.1.2, SVG Export Plug-In . SVG Version: 6.00 Build 0)  -->
<svg version="1.1" id="Layer_2" xmlns="http://www.w3.org/2000/svg" xmlns:xlink="http://www.w3.org/1999/xlink" x="0px" y="0px"
	 viewBox="0 0 99.3 260" style="enable-background:new 0 0 99.3 260;" xml:space="preserve" width="100" height="260">
<style type="text/css">
	.st0{fill:#FFA200;}
	.st1{fill:#D74D36;}
	.st2{fill:#7BB3A0;}
</style>
<g>
	<g>
		<path d="M99.3,152.1l-0.1-0.1c0,0,0,0,0,0C99.2,152,99.3,152,99.3,152.1z"/>
		<path d="M87.6,179.1c5.5-5.5,8.6-12.1,9.6-19.8c0.3-2.5,1.2-8.3,1.1-8.8c-1.7-9.9-7.6-40.4-8.2-43.5c-0.5-2.7-4.4-31.6-5.9-43.3
			c-2.4-18.4-4.5-36.8-5.4-55.3c-0.1-2.9-0.6-5.9-2.8-8.3c-2.8,0.1-5.5,0.1-8.2,0.4c-2.9,0.3-4.4,2.4-3.6,4.9
			c1.9,5.9,1.8,12,2.2,18.1c0.6,8.2,2,16.4,2.3,24.7c0.2,5.3,0.6,6.9,0.3,10.4c-3.6,0.2-6.4,0.1-9.7,0.5c-1.9,0.2-3.9,0.8-5.6,1.6
			c-4.1,2.1-6.1,7.7-4.4,11.6c2.2,5,4.4,9.9,6.5,14.8c-1.3,1.6-2.6,3-3.7,4.6c-0.6,0.9-1.1,1.9-1.6,2.9
			c-4.3,5.4-12.5,14.5-12.6,14.6c-0.1-1.7-0.1-3.5-0.1-5.3c0-1.4,0-2.7,0-4.1l0,0c0-0.3,0.1-7.1-0.8-11c0.3,0.1,0.6,0.2,0.9,0.3
			c2.2,0.6,3.9,0.7,4.5,0c0.6-0.8,2.7-6,2.8-6.3C47,78,28.8,72,22.1,68.4c-9.3-4.2-7.1-11.1-9.3-12.2c-0.1-0.1-0.2-0.1-0.3-0.1
			c-2.2-0.6-6.1,2.5-8,6.2C1.9,67.4,0.1,73.6,0,78.8c0,1.8,0.6,2.8,1.7,3.1c0.8,0.2,1.8,0,2.9-0.6c1.7-1,6.7-2.2,8.8-2
			c0.2,0,0.4,0.1,0.7,0.1c2.4,0.6,8,3.3,13.6,5.7c-0.7,0.4-1.3,1.2-2,2.4c-1,1.6-1.7,5.3-0.6,7.1c0.3,1.1,1.2,2.1,2.5,2.9
			c0.3,0.2,0.5,0.3,0.7,0.4c-0.5,2.6-0.7,4.8-0.7,4.8c-1.1,6.1-1.2,12.5-0.6,18.8c0.4,3.4,0.6,6.8,3.1,7.9
			c2.8,1.3,12.8-6.4,19.7-12.2c1,12.1,2.4,26.9,2.5,37.3c-2.3,2-6.8,5.8-6.8,5.8c-0.7,0.7-19.3,16.1-22.7,32.6
			c-2.6,12.3-5.4,24.6-7.9,37c-0.6,3.1-1.4,6.1-3.4,8.7c-1.4,1.7-2.2,3.7-2.1,6c0.1,1.8,1.2,3,2.9,3.2c5.7,0.5,10.8-2.9,12.5-8.5
			c1.9-6,3.9-12,5.7-18C42.2,182,58.8,173,63.8,173.2c0.9,3.5-9.3,12.1-13.6,42.5c-1.5,10.5-2.4,21.1-3.6,31.7
			c-0.2,1.6-0.6,10.1,4.8,12.1c2.5,0.9,4.4,0.8,5.5-1.6c1-2.1,1.7-4.4,1.9-6.7c0.5-5.3,1.5-10.5,3.2-15.6c1.7-5.3,2.9-10.7,4.4-16
			C68.4,212.5,74.1,192.7,87.6,179.1z M70.9,19.8c-1.8-3.5-2-6.9-1.8-10.6c1.7-0.6,3.3-1.1,5.1-1.8c1,3.6,1,6.9,0.9,10.6
			C73.9,18.6,72.5,19.2,70.9,19.8z M29.3,92.3c-0.8,0.8-1,1-2,0.7c-0.2-0.9,0.1-3.1,0.7-4.1c0.4-0.6,0.6-1,0.8-1.2
			c0.5,0.2,1,0.5,1.4,0.7C30.2,89.8,29.7,91.8,29.3,92.3z M24.7,79.3c-4.2-1.9-7.5-3.3-9.5-3.9c-0.5-0.1-0.9-0.2-1.4-0.3
			c-2.5-0.2-6.7,0.6-9.5,1.7c0.4-3.9,1.8-8.6,3.9-12.6c0.6-1.2,1.5-2.3,2.3-3c0.9,3.1,3,7.7,9.8,10.8c1.9,1,4.5,2.2,7.3,3.4
			c3.7,1.6,11.1,4.8,13.3,6.8c-0.5,1.2-0.9,2.2-1.2,2.8c-0.2,0-0.4-0.1-0.7-0.2C35.3,84,29.4,81.4,24.7,79.3z M30.9,98.8
			c0.1-0.3,0.1-0.7,0.2-1c0.4-1.6,2.1-4.6,3.5-6.7c0.2,1.6,0.3,3.7,0.4,6.6L30.9,98.8z M55.8,63.5c3.8-1.2,7.7-1.4,11.6-0.8
			c0.6,0.1,1.2,0.9,2.1,1.6c-3.3,0.6-5.3,0.4-9,1.8c-2.5,0.9-4.7,2.8-7,4.2C50.3,68.6,53.2,64.3,55.8,63.5z M63.4,86.7
			c-2.6-1.6-5.1-3.8-6.9-6.2c-1.7-2.3-1.9-6.4,1.9-8.6c2.2-1.3,4.2-2.9,6.9-2.8c2.9,0.1,4.1,0.8,4.5,3.5c0.4,2.7,0.4,5.4,0.5,7.1
			c-0.4,2.1-0.5,3.1-0.8,4C68.9,86.7,66,88.4,63.4,86.7z M66.5,207.6c-2.6,7.2-8.2,26.9-8.8,29.4c-0.9,3.8-1.6,7.7-2.3,11.6
			c-0.4,2.3,0.1,6.1-1.5,6.6c-4,0.4-3.8-5.8-3.6-7.9c0.6-6.7,2.7-22.7,2.8-24.1c2.7-34.3,18.2-46.8,14.5-55.7c-1,0.2-9.6,1.9-16.7,9
			c-4.4,4.3-12,9.3-22.5,39.8c-2,5.8-4.2,11.5-5.8,17.4c-0.6,2.1-1.2,4.2-2.1,6.1c-1.4,3.4-9.7,7.6-6.6,2c2.2-4,3.2-5.7,4.4-11.4
			c2.1-10,6.3-32.4,10.2-44.3c3.2-9.8,19.4-22.8,23.4-26.5c2.9-2.8,6.5-2.6,10.1-1.9c6,1.2,12.1,1.6,18.2,0.8
			c3.1-0.4,6.2-1.1,9.2-1.7c1.1-0.2,2.2-0.4,3.7-0.7c0.1,1.5,0.4,2.6,0.2,3.7c-1,6.4-3.8,11.9-8.3,16.6
			C76.2,185.2,68.4,202.4,66.5,207.6z"/>
	</g>
	<path class="st0" d="M70.9,19.8c-1.8-3.5-2-6.9-1.8-10.6c1.7-0.6,3.3-1.1,5.1-1.8c1,3.6,1,6.9,0.9,10.6
		C73.9,18.6,72.5,19.2,70.9,19.8z"/>
	<path class="st0" d="M29.3,92.3c-0.8,0.8-1,1-2,0.7c-0.2-0.9,0.1-3.1,0.7-4.1c0.4-0.6,0.6-1,0.8-1.2c0.5,0.2,1,0.5,1.4,0.7
		C30.2,89.8,29.7,91.8,29.3,92.3z"/>
	<path class="st1" d="M24.7,79.3c-4.2-1.9-7.5-3.3-9.5-3.9c-0.5-0.1-0.9-0.2-1.4-0.3c-2.5-0.2-6.7,0.6-9.5,1.7
		c0.4-3.9,1.8-8.6,3.9-12.6c0.6-1.2,1.5-2.3,2.3-3c0.9,3.1,3,7.7,9.8,10.8c1.9,1,4.5,2.2,7.3,3.4c3.7,1.6,11.1,4.8,13.3,6.8
		c-0.5,1.2-0.9,2.2-1.2,2.8c-0.2,0-0.4-0.1-0.7-0.2C35.3,84,29.4,81.4,24.7,79.3z"/>
	<path class="st0" d="M30.9,98.8c0.1-0.3,0.1-0.7,0.2-1c0.4-1.6,2.1-4.6,3.5-6.7c0.2,1.6,0.3,3.7,0.4,6.6L30.9,98.8z"/>
	<path class="st0" d="M55.8,63.5c3.8-1.2,7.7-1.4,11.6-0.8c0.6,0.1,1.2,0.9,2.1,1.6c-3.3,0.6-5.3,0.4-9,1.8c-2.5,0.9-4.7,2.8-7,4.2
		C50.3,68.6,53.2,64.3,55.8,63.5z"/>
	<path class="st0" d="M63.4,86.7c-2.6-1.6-5.1-3.8-6.9-6.2c-1.7-2.3-1.9-6.4,1.9-8.6c2.2-1.3,4.2-2.9,6.9-2.8
		c2.9,0.1,4.1,0.8,4.5,3.5c0.4,2.7,0.4,5.4,0.5,7.1c-0.4,2.1-0.5,3.1-0.8,4C68.9,86.7,66,88.4,63.4,86.7z"/>
	<path class="st2" d="M66.5,207.6c-2.6,7.2-8.2,26.9-8.8,29.4c-0.9,3.8-1.6,7.7-2.3,11.6c-0.4,2.3,0.1,6.1-1.5,6.6
		c-4,0.4-3.8-5.8-3.6-7.9c0.6-6.7,2.7-22.7,2.8-24.1c2.7-34.3,18.2-46.8,14.5-55.7c-1,0.2-9.6,1.9-16.7,9c-4.4,4.3-12,9.3-22.5,39.8
		c-2,5.8-4.2,11.5-5.8,17.4c-0.6,2.1-1.2,4.2-2.1,6.1c-1.4,3.4-9.7,7.6-6.6,2c2.2-4,3.2-5.7,4.4-11.4c2.1-10,6.3-32.4,10.2-44.3
		c3.2-9.8,19.4-22.8,23.4-26.5c2.9-2.8,6.5-2.6,10.1-1.9c6,1.2,12.1,1.6,18.2,0.8c3.1-0.4,6.2-1.1,9.2-1.7c1.1-0.2,2.2-0.4,3.7-0.7
		c0.1,1.5,0.4,2.6,0.2,3.7c-1,6.4-3.8,11.9-8.3,16.6C76.2,185.2,68.4,202.4,66.5,207.6z"/>
</g>
</svg>
