<?xml version="1.0" encoding="utf-8"?>
<!-- Generator: Adobe Illustrator 23.0.1, SVG Export Plug-In . SVG Version: 6.00 Build 0)  -->
<svg version="1.1" id="Layer_1" xmlns="http://www.w3.org/2000/svg" xmlns:xlink="http://www.w3.org/1999/xlink" x="0px" y="0px"
	 viewBox="0 0 18 10" style="enable-background:new 0 0 18 10;" xml:space="preserve">
<style type="text/css">
	.st0{clip-path:url(#SVGID_2_);}
	.st1{clip-path:url(#SVGID_4_);fill:#7BB4A1;}
</style>
<g>
	<defs>
		<path id="SVGID_1_" d="M17.9,1.2c-0.1,0.1-0.1,0.2-0.3,0.4C16.3,3,15,4.6,13.6,6c-0.8,0.8-1.6,1.8-2.4,2.6
			c-0.7,0.6-1.6,1.6-2.5,1.4C7.8,9.8,7.2,8.9,6.4,8.3C5.7,7.7,4.8,7.1,4.2,6.2C3.6,5.5,3,4.7,2.4,4C2,3.6-0.6,1.4,0.1,0.6
			c0.3-0.3,0.9-0.1,1.3-0.2c1.4-0.3,2.8,0,4.2,0c1.5,0,3-0.2,4.5-0.2c1.1,0,2.2-0.3,3.3-0.2c1,0,1.9,0.2,3,0.1
			C17.1,0.1,18.4,0.3,17.9,1.2"/>
	</defs>
	<clipPath id="SVGID_2_">
		<use xlink:href="#SVGID_1_"  style="overflow:visible;"/>
	</clipPath>
	<g class="st0">
		<defs>
			<rect id="SVGID_3_" x="-530" y="-237" width="1440" height="4363"/>
		</defs>
		<clipPath id="SVGID_4_">
			<use xlink:href="#SVGID_3_"  style="overflow:visible;"/>
		</clipPath>
		<rect x="-5" y="-5" class="st1" width="28" height="20"/>
	</g>
</g>
</svg>
