<?xml version="1.0" encoding="UTF-8"?>
<svg width="102px" height="58px" viewBox="0 0 102 58" version="1.1" xmlns="http://www.w3.org/2000/svg" xmlns:xlink="http://www.w3.org/1999/xlink">
    <!-- Generator: Sketch 59.1 (86144) - https://sketch.com -->
    <title>COP26_logo_narrow Copy</title>
    <desc>Created with Sketch.</desc>
    <g id="Page-1" stroke="none" stroke-width="1" fill="none" fill-rule="evenodd">
        <g id="Style-guide" transform="translate(-60.000000, -4257.000000)" fill-rule="nonzero">
            <g id="COP26_logo_narrow-Copy" transform="translate(60.000000, 4257.000000)">
                <path d="M6,45.6543438 C5.98640701,45.7938421 5.9191015,45.9239355 5.81065089,46.0203327 C5.39751291,45.72238 4.88804556,45.5658393 4.36686391,45.5767098 C2.85207101,45.5767098 0.579881657,46.9963031 0.579881657,53.4288355 C0.579881657,55.9020333 1.58579882,56.4454713 2.85207101,56.4454713 C3.47645772,56.4273905 4.08470061,56.2552377 4.61538462,55.9463956 C4.67874984,56.0426371 4.70776513,56.1552887 4.69822485,56.2680222 C4.69822485,56.5785582 3.77514793,57 2.68639053,57 C1.20710059,57 0,56.245841 0,53.5951941 C0.0355029586,46.5748614 2.61538462,45 4.44970414,45 C5.43195266,45 6,45.3881701 6,45.6543438 Z" id="Path" fill="#231F20"></path>
                <path d="M10.5133215,45 C12.0426288,45 13,46.1070111 13,48.8523985 C13,51.597786 12.2539964,57 8.59857904,57 C6.3357016,57 6,54.7859779 6,52.9704797 C6,50.00369 6.9946714,45 10.5133215,45 Z M6.60923623,52.9372694 C6.60923623,54.0442804 6.69626998,56.4797048 8.6731794,56.4797048 C11.6323268,56.4797048 12.4031972,51.3210332 12.4031972,48.9077491 C12.4031972,46.4944649 11.6820604,45.5867159 10.4760213,45.5867159 C7.52930728,45.5867159 6.60923623,50.2915129 6.60923623,52.9372694 Z" id="Shape" fill="#231F20"></path>
                <path d="M20.079929,53.4640186 L15.2184725,53.4640186 C14.9946714,54.4967496 14.8081705,55.5743821 14.6589698,56.7305919 C14.6589698,56.9438733 14.4849023,57 14.2984014,57 C14.194883,56.9961859 14.0933278,56.9732639 14,56.932648 C14.3950916,53.4192054 15.3065944,49.9689004 16.7104796,46.6726891 C17.0878864,45.673376 18.1271943,45.0012093 19.2966252,45.0000545 C19.57192,44.9987381 19.8467222,45.0212928 20.1172291,45.0674658 L21,56.7081412 C21,56.9438733 20.8383659,56.9775493 20.6269982,56.9775493 C20.5408702,56.993581 20.452025,56.993581 20.365897,56.9775493 L20.079929,53.4640186 Z M15.330373,52.9252023 L20.0426288,52.9252023 L19.7566607,49.0412354 C19.6571936,47.5145895 19.5825933,46.403281 19.5452931,45.572606 C19.4336465,45.5629794 19.321238,45.5629794 19.2095915,45.572606 C18.2551849,45.6015922 17.4262871,46.174133 17.1456483,46.9982239 C16.3324012,48.9170426 15.7245352,50.9017598 15.330373,52.9252023 L15.330373,52.9252023 Z" id="Shape" fill="#231F20"></path>
                <path d="M23.7525816,56.4518982 L27.9858532,56.4518982 C28.0047156,56.5192344 28.0047156,56.5893724 27.9858532,56.6567086 C27.9945436,56.7513458 27.95294,56.844335 27.8723753,56.9103464 C27.7918105,56.9763578 27.6806765,57.0085153 27.5692456,56.9980594 L23,56.9980594 L24.6664307,45.2669723 C24.6664307,45.0735402 24.8411372,45.00527 25.0427215,45.00527 C25.1455864,44.9982433 25.2489527,44.9982433 25.3518176,45.00527 L23.7525816,56.4518982 Z" id="Path" fill="#231F20"></path>
                <path d="M28.010648,57 C27.9964507,56.9322082 27.9964507,56.8628582 28.010648,56.7950664 C28.010648,56.5901328 28.1463314,56.4535104 28.3362882,56.4535104 L29.7473957,56.4535104 L31.3213233,45.5464896 L29.7473957,45.5464896 C29.741332,45.4782731 29.741332,45.4097724 29.7473957,45.341556 C29.7473957,45.1366224 29.8695108,45 30.0730359,45 L33.9942865,45 C34.0019045,45.0643578 34.0019045,45.1291906 33.9942865,45.1935484 C33.9942865,45.4667932 33.8450348,45.5464896 33.5872363,45.5464896 L32.0540137,45.5464896 L30.4529494,56.4535104 L32.2304021,56.4535104 C32.2396402,56.5177937 32.2396402,56.5827755 32.2304021,56.6470588 C32.2304021,56.9203036 32.1082871,57 31.8233519,57 L28.010648,57 Z" id="Path" fill="#231F20"></path>
                <path d="M36.6700074,45.4977231 L34.0047283,45.5655944 C33.9984239,45.4865349 33.9984239,45.4071042 34.0047283,45.3280448 C33.9984776,45.24513 34.0265351,45.1632682 34.0824231,45.1013596 C34.138311,45.039451 34.2171979,45.0028474 34.3008704,45 L39.9959112,45 C40.0013629,45.0677633 40.0013629,45.1358506 39.9959112,45.203614 C39.9959112,45.4750993 39.8592302,45.5655944 39.6997691,45.5655944 L37.2167313,45.4977231 L35.8271413,56.809611 C35.8271413,56.9792893 35.6676802,56.9906012 35.5196091,56.9906012 C35.432741,57.0031329 35.3445054,57.0031329 35.2576373,56.9906012 L36.6700074,45.4977231 Z" id="Path" fill="#231F20"></path>
                <path d="M39.0107611,57 C38.996413,56.9322082 38.996413,56.8628582 39.0107611,56.7950664 C39.0107611,56.5901328 39.1478852,56.4535104 39.339859,56.4535104 L40.8207995,56.4535104 L42.4114393,45.5464896 L40.6973878,45.5464896 C40.6912597,45.4782731 40.6912597,45.4097724 40.6973878,45.341556 C40.6973878,45.1366224 40.8207995,45 41.0264857,45 L44.9893728,45 C45.0035424,45.0639798 45.0035424,45.1295686 44.9893728,45.1935484 C44.9893728,45.4667932 44.8385363,45.5464896 44.5780004,45.5464896 L43.0696351,45.5464896 L41.4515704,56.4535104 L43.2890337,56.4535104 C43.2937898,56.5179661 43.2937898,56.5826031 43.2890337,56.6470588 C43.2890337,56.9203036 43.165622,57 42.8776613,57 L39.0107611,57 Z" id="Path" fill="#231F20"></path>
                <path d="M51.5133215,45 C53.0426288,45 54,46.1070111 54,48.8523985 C54,51.597786 53.2539964,57 49.598579,57 C47.3357016,57 47,54.7859779 47,52.9704797 C47,50.00369 47.9946714,45 51.5133215,45 Z M47.6092362,52.9151292 C47.6092362,54.0221402 47.6838366,56.4575646 49.6731794,56.4575646 C52.6323268,56.4575646 53.4031972,51.298893 53.4031972,48.8856089 C53.4031972,46.4723247 52.6820604,45.5645756 51.4760213,45.5645756 C48.5293073,45.5867159 47.6092362,50.2915129 47.6092362,52.9372694 L47.6092362,52.9151292 Z" id="Shape" fill="#231F20"></path>
                <path d="M55.3444444,45.2724029 C55.3444444,45.0922414 55.5222222,45.0359409 55.7,45.0359409 L55.9666667,45.0359409 L58.3444444,52.6477669 C58.7333333,53.8751175 59.0111111,54.9786071 59.2444444,55.9469755 L59.3111111,55.9469755 C59.3111111,54.742145 59.6,52.4113048 60.0222222,48.9094145 L60.4333333,45.2611428 C60.4416807,45.18328 60.4804658,45.1120532 60.5410182,45.0633849 C60.6015706,45.0147166 60.6788409,44.9926654 60.7555556,45.0021606 L61,45.0021606 L59.6111111,56.7239222 C59.6111111,56.9040838 59.4444444,56.9716444 59.2444444,56.9716444 C59.1746272,56.9842889 59.1031506,56.9842889 59.0333333,56.9716444 L56.7222222,49.5174597 C56.1888889,47.7496244 55.9555556,46.8150363 55.7333333,45.9367487 L55.7333333,45.9367487 C55.7333333,46.9388974 55.3888889,49.7201415 55.0111111,52.8504486 L54.5444444,56.7689626 C54.5444444,56.9378641 54.4222222,56.9941645 54.2444444,56.9941645 C54.1631438,57.0019452 54.0813006,57.0019452 54,56.9941645 L55.3444444,45.2724029 Z" id="Path" fill="#231F20"></path>
                <path d="M0.0424387124,20.5546673 C0.83942986,16.3051311 0.547573947,13.8191524 4.77948469,9.46337781 C8.12092508,6.76152069 12.5305984,5.55362718 16.8802799,6.14873956 C20.6968572,6.47807862 20.6295058,9.38901093 20.4723526,10.0689367 C19.8886408,12.6186585 18.7212172,12.7248969 13.8943694,14.4884544 C9.59510726,16.0714066 9.40427839,20.5546673 9.51653067,23.1893798 C9.86009507,25.8716055 11.9047642,28.0807699 14.6689101,28.7562722 C18.2722081,29.8186563 22.414317,30.8172973 20.5284788,33.9513303 C18.6426406,37.0853632 11.6942248,36.0760984 8.47258452,34.5356415 C5.25094424,32.9951846 -0.552498342,30.1798669 0.0424387124,20.5546673 Z" id="Path" fill="#231F20"></path>
                <path d="M35.2779093,6 C35.2779093,6 24.9124512,6.15290929 22.4686587,13.6454646 C20.0248661,21.1380199 21.0637731,26.8393521 22.4686587,29.7664728 C23.8735442,32.6935935 26.8013729,36.1886631 34.994571,35.9920654 C43.1877692,35.7954677 46.3399073,32.7154377 47.5559007,28.9473159 C48.7718941,25.179194 50.0823336,18.6914712 47.5559007,13.0010612 C45.0294679,7.31065107 41.121761,6 35.2779093,6 Z" id="Path" fill="#231F20"></path>
                <path d="M53.9061696,29.5094962 C54.3028871,32.8521057 54.4351263,36 57.1640623,36 C59.8929983,36 61.2514554,34.1285714 61.5760425,30.8616845 C61.9006296,27.5947976 61.3235859,24.7281584 62.4175646,23.8303054 C63.5115433,22.9324524 67.9716105,24.0250205 71.6863295,21.9047893 C74.3268102,20.6088778 75.9720914,18.1206918 75.9780923,15.4142855 C76.2425707,11.963501 74.1748306,6.67374038 66.3606968,6.13286506 C58.5465629,5.59198975 54.3389524,6.76028043 53.9061696,8.588439 C52.1630166,15.0573078 53.3772128,25.1067711 53.9061696,29.5094962 Z" id="Path" fill="#231F20"></path>
                <path d="M34.2771561,13.0243184 C32.0618246,13.6039999 30.479368,15.3623423 30.3080065,17.4346279 C29.8256139,19.842895 29.9106382,22.3156117 30.5575638,24.6923703 C31.2643595,26.8767716 33.6402941,28.2656279 36.1428941,27.9572839 C39.1520894,27.8835508 41.6411238,25.8241218 41.9777816,23.1294936 C42.1236628,20.7178908 41.54915,18.3151557 40.3140662,16.171481 C38.9236755,13.4525038 37.0341702,12.8637489 34.2771561,13.0243184 Z" id="Path" fill="#FFFFFF"></path>
                <path d="M62.0373134,12.6103359 C62.0300215,14.0727513 62.1665144,15.5317417 62.4444086,16.9618287 C62.7872256,17.7283518 63.5157117,18.3061923 65.4012052,17.8226931 C67.2866987,17.3391939 68.743671,16.9736214 68.9257925,15.6410504 C69.2278911,14.2095941 68.5866951,12.739148 67.383116,12.1032513 C65.8972469,11.3210303 64.2619117,10.9448213 62.6158171,11.0065336 C61.7802007,11.1716309 62.0373134,12.6103359 62.0373134,12.6103359 Z" id="Path" fill="#FFFFFF"></path>
                <path d="M76.2929304,28 C73.7263351,28.0504063 71.2799443,29.1191905 69.4727032,30.9796346 C66.4003324,34.1149218 66.8579196,34.9376567 67.3699814,36.0272246 C67.8820431,37.1167925 69.9629751,36.7832513 71.096048,36.0272246 C72.2291209,35.2711979 74.0376795,33.2254786 75.4540207,33.9815053 C76.8703618,34.737532 76.2493507,36.5608905 72.7193928,44.3657543 C69.1894349,52.1706182 68.0890468,55.6616826 69.7777613,57.2404442 C71.4664757,58.8192059 76.3147203,57.5739854 78.9295039,56.7623685 C81.5442875,55.9507516 83.9193826,55.3948497 83.9956471,53.4269567 C84.0719116,51.4590636 83.1349475,51.3812374 82.0563493,51.4479456 C80.977751,51.5146538 76.4999341,53.4269567 76.4999341,51.9927295 C76.4999341,50.5585024 78.5808661,46.5560082 80.1606312,41.3861197 C81.7403963,36.2162313 84.4532343,29.0228596 76.2929304,28 Z" id="Path" fill="#231F20"></path>
                <path d="M90.1776738,35.5355699 C90.1776738,35.5355699 84.6733976,46.0604731 86.3009454,51.634444 C87.9284932,57.208415 90.4715366,58.17635 94.9925026,57.9760876 C99.796029,57.7535738 102,54.0598446 102,50.0768474 C102,45.4374345 101.118412,43.8464607 98.2249933,43.3124276 C95.3315751,42.7783944 93.1163017,44.6920132 92.5737858,43.7352038 C92.0312698,42.7783944 94.1109142,38.7508945 95.3202727,36.1474829 C96.5296311,33.5440714 98.541461,29.6945825 96.9139132,29.0826695 C95.2863654,28.4707565 92.7885317,31.3189333 90.1776738,35.5355699 Z" id="Path" fill="#231F20"></path>
                <path d="M90.3179913,47.7462746 C90.8901688,46.0748838 92.5774342,44.9563991 94.4588555,45.0013044 C97.7058189,45.099339 97.0879756,47.9791068 96.6278796,49.167777 C96.3662203,50.2017586 95.6375301,51.0796705 94.6295437,51.5753333 C93.6215573,52.0709961 92.4328379,52.1359428 91.3696393,51.7534408 C89.1217416,51.0304353 90.3179913,47.7462746 90.3179913,47.7462746 Z" id="Path" fill="#FFFFFF"></path>
                <path d="M86.6566179,1.56374725 L83.5921443,2.46763147 C83.1364605,2.58552942 82.9883632,2.84752484 83.0681079,3.41081501 C83.2275972,4.57669466 83.318734,5.74257431 83.3870866,6.90845396 C83.3436974,7.24624014 83.2633144,7.57635604 83.1478526,7.89093681 C82.0342768,7.15787535 81.128414,6.07073667 80.5390627,4.76009146 C80.0150263,6.47616151 80.5390627,8.44112721 79.3998532,10 C78.0100176,8.42802744 77.1214341,3.81690792 77.9758413,2.40213262 C76.6543582,1.2231532 75.3556593,2.57242965 74,2.32353399 C74.592389,2.11393765 75.1392095,1.93054085 75.7657748,1.66854542 C76.39234,1.40655 76.7227108,1.06595594 77.1897867,0.803960514 C77.5428235,0.551598632 77.926853,0.361712508 78.3289962,0.240670346 C79.6549421,-0.0802234485 81.02446,-0.0802234485 82.3504059,0.240670346 C83.2959498,0.528865315 84.2187095,0.843259828 85.1528613,1.10525525 C85.7574445,1.18580516 86.3699659,1.12339544 86.9528124,0.921858456 C87.0667333,0.790860742 86.9528124,1.2231532 86.8388914,1.41964977 C86.7249705,1.61614634 86.6452258,1.52444794 86.6566179,1.56374725 Z" id="Path" fill="#000000"></path>
                <path d="M99.3655706,7 C99.2986944,7.29581569 99.2173364,7.58738853 99.1218569,7.87342767 C98.8890705,8.55743521 98.6057117,9.21902977 98.2746615,9.85148445 C97.7482598,10.9066065 97.6883716,12.1707067 98.1121857,13.2809725 C98.2514507,13.8718206 98.3210832,14.4883578 98.4371373,15.1948067 C99.5195201,15.9209577 100.738845,16.3605381 102,16.4792591 C101.733075,16.7875277 101.628627,17.0315737 101.466151,17.0701072 C100.189555,17.3783758 98.901354,17.6994889 97.6015474,17.9050013 C96.3469678,18.1394249 95.0575765,17.9374825 93.9110251,17.3269977 C93.2731786,16.9405435 92.5085584,16.9072637 91.8452611,17.2370861 C91.2765957,17.4939766 90.6847195,17.6609554 90.0812379,17.8664678 L90,17.6352663 L91.6711799,16.941662 C92.1521531,16.7734357 92.5845021,16.4677204 92.9245648,16.0553898 C93.2767035,15.7148261 93.7135775,15.4999288 94.1779497,15.4388526 C95.0135397,15.2461848 95.3384913,14.8736935 95.1644101,13.9488878 C95.1279339,13.6192607 95.0160911,13.3053791 94.8394584,13.0369265 C94.4555637,12.5031848 94.4555637,11.7467458 94.8394584,11.213004 C95.7143604,9.4216255 97.1023891,8.00287347 98.7852998,7.17982334 C98.9721281,7.09634376 99.1667393,7.03603462 99.3655706,7 Z" id="Path" fill="#000000"></path>
            </g>
        </g>
    </g>
</svg>