<?xml version="1.0" encoding="utf-8"?>
<!-- Generator: Adobe Illustrator 23.0.1, SVG Export Plug-In . SVG Version: 6.00 Build 0)  -->
<svg version="1.1" id="Layer_1" xmlns="http://www.w3.org/2000/svg" xmlns:xlink="http://www.w3.org/1999/xlink" x="0px" y="0px"
	 viewBox="0 0 27.5 25.6" style="enable-background:new 0 0 27.5 25.6;" xml:space="preserve">
<style type="text/css">
	.st0{clip-path:url(#SVGID_2_);}
	.st1{clip-path:url(#SVGID_4_);fill:#FFFFFF;}
</style>
<g>
	<defs>
		<path id="SVGID_1_" d="M26.8,23.9c-0.2,0.5-0.4,0.9-0.9,1.1c-0.8,0.4-1.6,0.3-2.2-0.4c-1.9-1.8-3.9-3.7-5.8-5.5
			c-0.2-0.2-0.4-0.4-0.6-0.6c-0.1-0.1-0.2-0.1-0.4,0c-0.9,0.6-1.9,1-2.9,1.3c-2.2,0.6-4.4,0.5-6.5-0.3c-2.5-0.9-4.4-2.5-5.6-4.8
			c-0.8-1.6-1.2-3.3-1-5.1c0.2-2.7,1.4-4.9,3.5-6.7c1.6-1.3,3.4-2.1,5.5-2.4c2.7-0.3,5.2,0.3,7.4,1.8c1.5,1.1,2.7,2.4,3.4,4.1
			c0.7,1.6,1,3.3,0.7,5.1c-0.2,1.5-0.8,2.9-1.7,4.2c-0.1,0.2-0.1,0.3,0,0.4c2.1,2,4.2,4,6.3,6c0.3,0.3,0.6,0.7,0.8,1.1V23.9z
			 M10.8,17.7c4.2,0.2,8.2-2.9,8.2-7.4c0-4-3.2-7.3-7.6-7.5c-4.4-0.2-8,3.1-8.1,7.3C3.2,14.3,6.6,17.6,10.8,17.7z"/>
	</defs>
	<use xlink:href="#SVGID_1_"  style="overflow:visible;fill:#FFFFFF;"/>
	<clipPath id="SVGID_2_">
		<use xlink:href="#SVGID_1_"  style="overflow:visible;"/>
	</clipPath>
	<g class="st0">
		<defs>
			<rect id="SVGID_3_" x="-282.2" y="-16.6" width="375" height="3604"/>
		</defs>
		<use xlink:href="#SVGID_3_"  style="overflow:visible;fill:#FFFFFF;"/>
		<clipPath id="SVGID_4_">
			<use xlink:href="#SVGID_3_"  style="overflow:visible;"/>
		</clipPath>
		<rect x="-4.2" y="-4.6" class="st1" width="36" height="34.8"/>
	</g>
</g>
</svg>
