<?xml version="1.0" encoding="utf-8"?>
<!-- Generator: Adobe Illustrator 19.0.0, SVG Export Plug-In . SVG Version: 6.00 Build 0)  -->
<svg version="1.1" id="Layer_1" xmlns="http://www.w3.org/2000/svg" xmlns:xlink="http://www.w3.org/1999/xlink" x="0px" y="0px"
	 viewBox="0 0 21 20" style="enable-background:new 0 0 21 20;" xml:space="preserve">
<style type="text/css">
	.st0{clip-path:url(#XMLID_65_);}
	.st1{clip-path:url(#XMLID_66_);fill:#7bb4a1;}
	.st2{fill:none;stroke:#7bb4a1;stroke-miterlimit:10;}
</style>
<g id="XMLID_1_">
	<g id="XMLID_5_">
		<defs>
			<path id="XMLID_6_" d="M20.5,18.6c-0.1,0.4-0.3,0.7-0.7,0.8c-0.6,0.3-1.2,0.2-1.7-0.3c-1.5-1.4-3-2.8-4.5-4.3
				c-0.2-0.2-0.3-0.3-0.5-0.5c-0.1-0.1-0.2-0.1-0.3,0c-0.7,0.4-1.4,0.8-2.2,1c-1.7,0.5-3.4,0.4-5-0.2c-1.9-0.7-3.4-2-4.3-3.7
				c-0.6-1.2-0.9-2.5-0.8-3.9c0.2-2,1.1-3.8,2.7-5.1c1.2-1,2.6-1.6,4.2-1.8c2.1-0.2,4,0.2,5.7,1.4c1.2,0.8,2.1,1.9,2.6,3.1
				c0.6,1.3,0.8,2.6,0.6,3.9c-0.2,1.2-0.6,2.3-1.3,3.3c-0.1,0.1-0.1,0.2,0,0.3c1.6,1.5,3.2,3.1,4.8,4.6c0.3,0.2,0.5,0.5,0.6,0.8
				V18.6z M8.2,13.8c3.3,0.2,6.3-2.3,6.3-5.7c0-3.1-2.5-5.7-5.8-5.8C5.3,2.2,2.5,4.7,2.4,7.9C2.3,11.2,5,13.7,8.2,13.8z"/>
		</defs>
		<clipPath id="XMLID_65_">
			<use xlink:href="#XMLID_6_"  style="overflow:visible;"/>
		</clipPath>
		<g id="XMLID_9_" class="st0">
			<defs>
				<rect id="XMLID_10_" x="-1359.5" y="-5391.5" width="1440" height="13555"/>
			</defs>
			<clipPath id="XMLID_66_">
				<use xlink:href="#XMLID_10_"  style="overflow:visible;"/>
			</clipPath>
			<rect id="XMLID_11_" x="-4.5" y="-4.5" class="st1" width="30" height="29"/>
		</g>
	</g>
	<path id="XMLID_2_" class="st2" d="M20.5,18.6c-0.1,0.4-0.3,0.7-0.7,0.8c-0.6,0.3-1.2,0.2-1.7-0.3c-1.5-1.4-3-2.8-4.5-4.3
		c-0.2-0.2-0.3-0.3-0.5-0.5c-0.1-0.1-0.2-0.1-0.3,0c-0.7,0.5-1.4,0.8-2.2,1c-1.7,0.5-3.4,0.4-5-0.2c-1.9-0.7-3.4-2-4.3-3.7
		c-0.6-1.2-0.9-2.5-0.8-3.9c0.2-2,1.1-3.8,2.7-5.1c1.2-1,2.6-1.6,4.2-1.8c2.1-0.2,4,0.2,5.7,1.4c1.2,0.8,2.1,1.9,2.6,3.1
		c0.6,1.3,0.8,2.6,0.6,3.9c-0.2,1.2-0.6,2.3-1.3,3.3c-0.1,0.1-0.1,0.2,0,0.3c1.6,1.5,3.2,3.1,4.8,4.6c0.3,0.2,0.5,0.5,0.6,0.8V18.6z
		 M8.2,13.8c3.3,0.2,6.3-2.3,6.3-5.7c0-3.1-2.5-5.6-5.8-5.8C5.3,2.2,2.5,4.7,2.4,7.9C2.3,11.2,5,13.7,8.2,13.8z"/>
</g>
</svg>
