<?xml version="1.0" encoding="UTF-8"?>
<svg width="24px" height="26px" viewBox="0 0 24 26" version="1.1" xmlns="http://www.w3.org/2000/svg" xmlns:xlink="http://www.w3.org/1999/xlink">
    <!-- Generator: Sketch 59.1 (86144) - https://sketch.com -->
    <title>Share</title>
    <desc>Created with Sketch.</desc>
    <g id="Page-1" stroke="none" stroke-width="1" fill="none" fill-rule="evenodd">
        <g id="Style-guide" transform="translate(-367.000000, -2608.000000)" fill="#ffffff">
            <g id="Share" transform="translate(367.000000, 2608.000000)">
                <path d="M22.8181116,22.9997732 C22.3989014,24.733063 20.8536768,25.6424906 19.1278145,25.6421936 C17.8259159,25.6418964 16.8122058,25.0809688 16.0349884,24.0806283 C15.773242,23.7434181 15.585771,23.3714471 15.3896841,22.9947225 C14.8759957,22.0083457 14.6341551,21.3841355 15.0254377,20.284563 C15.327887,19.4357442 15.8852493,18.6784326 16.651771,18.1944543 C17.1369377,17.8884399 17.5843725,17.6676935 18.1509449,17.6364978 C19.0241261,17.5889616 19.6379377,17.6180775 20.4377348,17.9698457 C21.3361696,18.3646935 22.1059594,19.0655558 22.623213,19.8953601 C22.9122928,20.3591355 22.9904304,20.7468529 22.9904304,21.2896572 C22.9901333,21.8621717 22.9509159,22.4504326 22.8181116,22.9997732" id="Fill-4"></path>
                <path d="M20.9039167,7.60650145 C19.4344529,8.61664638 17.6770978,8.26131304 16.3927283,7.10855942 C15.4235833,6.23894348 15.0438877,5.14471884 15.1336123,3.88114638 C15.1636196,3.4551029 15.2723587,3.05312464 15.3781268,2.64134203 C16.2207065,-0.641034783 20.6804964,-0.657078261 22.1945254,1.99752319 C22.7091051,2.90011739 23.2991486,3.9474 23.0050181,5.01191449 C22.7120761,6.07137826 21.774721,7.00754493 20.9039167,7.60650145" id="Fill-6"></path>
                <path d="M7.27135725,16.3132377 C6.03898043,17.6023609 4.24597319,17.6133536 2.75333551,16.7470058 C1.62732101,16.0936797 1.03222681,15.0998754 0.861987681,13.8446217 C0.80435,13.4215493 0.82900942,13.0056072 0.848321014,12.5813464 C0.899125362,11.4704841 1.00311087,10.8091362 1.89322681,10.0544986 C2.58101667,9.47188261 3.44290797,9.09664348 4.34906739,9.06277391 C4.92247319,9.04108551 5.41982101,9.07495507 5.92548768,9.33254203 C6.70478478,9.72946957 7.2211471,10.0625203 7.73632101,10.7681362 C8.31537174,11.5605058 8.62940797,12.5528246 8.66060362,13.5302884 C8.67783551,14.076658 8.55097319,14.4510058 8.27853116,14.9207232 C7.99093696,15.4156942 7.66174855,15.9047232 7.27135725,16.3132377" id="Fill-8"></path>
                <path d="M6.65320797,14.1743449 C7.65859928,14.5810768 8.60962101,15.0781275 9.54281667,15.6048884 C10.4730413,16.1364029 11.3845486,16.6997072 12.2734761,17.3007435 L14.9194616,19.1371275 C15.8116572,19.7322217 16.692563,20.3463304 17.676563,20.7887145 L16.9204399,22.0490188 C16.0674616,21.3882652 15.1107949,20.9004246 14.1660123,20.3932725 L11.3004688,18.9223232 C10.3518239,18.421113 9.4260558,17.8818739 8.51900507,17.3114391 C7.61492536,16.7359536 6.72896884,16.1304609 5.89708478,15.4346493 L6.65320797,14.1743449 Z" id="Fill-10"></path>
                <path d="M5.90480942,10.8630007 C6.73847609,10.18145 7.62532391,9.59110942 8.52940362,9.03047899 C9.43675145,8.47519638 10.3625196,7.95140652 11.3102732,7.46564565 L14.173737,6.04223261 C15.1182225,5.55082681 16.0737007,5.07843551 16.9281645,4.43253696 L17.6688384,5.70205145 C16.6860268,6.12779783 15.8045268,6.72734855 14.911737,7.30729058 L12.2630775,9.09910942 C11.3738529,9.68529058 10.4623457,10.2334428 9.53212101,10.749508 C8.59922246,11.2608196 7.64909203,11.7421239 6.64548333,12.1322181 L5.90480942,10.8630007 Z" id="Fill-12"></path>
            </g>
        </g>
    </g>
</svg>